<?xml version="1.0" encoding="utf-8"?>
<!-- Generator: Adobe Illustrator 24.0.0, SVG Export Plug-In . SVG Version: 6.00 Build 0)  -->
<svg version="1.1" id="Layer_1" xmlns="http://www.w3.org/2000/svg" xmlns:xlink="http://www.w3.org/1999/xlink" x="0px" y="0px"
	 viewBox="0 0 138.1 305" style="enable-background:new 0 0 138.1 305;" xml:space="preserve">
<path d="M67.9,250.1c0.1,0.4,0.1,0.7,0.2,1.1c0,0,0,0,0,0c0,0.3,0,0.5,0,0.8c0,0.1-0.1,0.1-0.1,0.2c0-0.1-0.1-0.1-0.1-0.2
	c0.1-0.6-0.1-1.2-0.3-1.8c0-0.1,0.1-0.2,0.1-0.3C67.7,249.9,67.9,250,67.9,250.1z M29.4,216.5c-0.1,0.6-0.2,1.3-0.3,1.7
	c0,0.5,0,0.7,0,0.9c0,0,0.1,0.1,0.1,0.1c0.1,0,0.2-0.1,0.2-0.1c0.1-0.9,0.6-1.6,0.5-2.5c0-0.2-0.1-0.3-0.1-0.4
	C29.7,216.3,29.5,216.4,29.4,216.5z M71.9,108.4c0-0.2-0.3-0.6-0.2-0.6c0.5-0.6,0.1-1.3,0.2-1.9c0-0.3,0-0.5,0-0.7c0,0,0-0.1,0-0.1
	c0-0.8,0.2-1.7-1-1.9c-0.1,0-0.1-0.6-0.4-0.4c-0.1,0-0.1,0.4-0.1,0.6c-0.1,0.7,0,1.4,0.7,1.8c0.1,0,0.1,0.1,0.2,0.2
	c0.2,0.3,0.3,1.2,0,1.3c-0.5,0.1-0.6,0.5-0.8,0.8c-0.2,0.3-0.4,0.5-0.4,0.9c0,0.4,0.2,0.7,0.5,1c0.4,0.3,0.4,0.7,0.3,1.1
	c-0.2,0.7-0.5,1.3-0.6,1.9c-0.1,0.5-0.1,1,0,1.5c0.1,0.4,0.4,1.3,0.4,1.7c0,0.1,0,0.2,0,0.3c0.5,0.4,0,0.8-0.1,1.2
	c-0.2,0.6-0.5,1.2-0.4,1.9c0.1,1.4-0.4,2.8-0.3,4.3c0,0,0,0.1,0,0.1c-0.5,1.1-0.1,2.3-0.3,3.4c0,0.1,0.1,0.1,0.1,0.2
	c0-0.1,0.1-0.1,0.1-0.2c0.2-0.7,0.5-1.4,0.5-2.1c0-1.2,0.4-2.3,0.9-3.3c0.5-0.9,0.6-1.9,0.7-2.8c0.1-1.3,0-2.7,0-4
	c0-0.3,0-0.5-0.1-0.7c-0.4-0.7-0.1-1.5-0.2-2.3C72.2,110.4,71.8,109.4,71.9,108.4z M33,205c0.6-0.1,0.5-0.6,0.5-1
	C33,204.1,33,204.6,33,205z M31.2,210.6c-0.3,0.5-0.7,1-0.8,1.6c-0.1,0.4-0.1,0.9-0.3,1.3c-0.2,0.5-0.2,1-0.2,1.5
	c0,0.1,0.1,0.2,0.1,0.4c0.1-0.1,0.3-0.2,0.4-0.3c0.3-0.5,0.3-1,0.4-1.5c0-0.5,0.4-1,0.5-1.5c0-0.4,0.3-0.8,0.3-1.2
	c0-0.1,0-0.2-0.1-0.4C31.3,210.5,31.2,210.6,31.2,210.6z M32.9,205c0,0.1-0.1,0.1-0.1,0.2c-0.4,0.7-0.5,1.5-0.8,2.3
	c-0.1,0.4-0.2,0.9-0.3,1.3c0,0,0.1,0,0.1,0c0,0.1,0,0.3,0,0.4c0,0.2,0.1,0.3,0.1,0.5c0-0.1,0.1-0.3,0.1-0.4c0.1-0.3,0.2-0.5,0.3-0.8
	c0.1-0.2,0.2-0.4,0.2-0.7c0.1-0.7-0.2-1.4,0.5-1.9c0.1-0.1,0-0.4,0-0.6C33,205.2,32.9,205.1,32.9,205z M70.2,100.6
	c0-0.1,0.1-0.1,0.1-0.2c0-0.1,0-0.3,0-0.4s0-0.3,0-0.4c0-0.1-0.1-0.2-0.1-0.3c0,0.1-0.1,0.2-0.1,0.3c0,0.3,0,0.5,0,0.8
	C70.1,100.5,70.2,100.5,70.2,100.6z M33.7,202.9c-0.1,0.3-0.1,0.6-0.2,0.9c0,0,0.1,0.1,0.1,0.1c0.1-0.2,0.1-0.5,0.2-0.7
	c0-0.1,0.1-0.2,0.2-0.3c-0.1,0-0.1-0.1-0.2-0.1C33.8,202.9,33.7,202.9,33.7,202.9z M38.4,246.3C38.4,246.3,38.3,246.3,38.4,246.3
	c-0.1,0-0.2,0.1-0.2,0.2c0.2,0.4,0.3,0.8,0.5,1.2c0.3,0.5,1,0.9,1,0.8c-0.1-0.4-0.4-0.7-0.5-1.1C39.2,246.8,38.7,246.7,38.4,246.3z
	 M48.8,242.3c0-0.1-0.1-0.1-0.1-0.2c-0.1,0.1-0.1,0.2-0.2,0.3c0,0.1,0,0.2,0,0.5c0,0,0,0.3,0.1,0.5c0.4,0.5,0.4,1,0.4,1.6
	c0,0.1,0,0.3,0,0.4c0.1,0.1,0.2,0.2,0.4,0.4c0-0.1,0.1-0.3,0.1-0.4c0.1-0.7-0.3-1.3-0.4-1.9C49.2,243,49,242.7,48.8,242.3z
	 M53.4,194.1C53.4,194.1,53.3,194.2,53.4,194.1c0.1,0.8-0.9,1.1-0.7,1.8c0,0.1-0.1,0.2-0.2,0.3c-0.6,0.5-0.5,1.2-0.8,1.9
	c0,0.1,0.1,0.2,0.2,0.3c0,0,0.2,0,0.2-0.1c0.2-0.6,0.5-1.3,0.7-1.9c0.2-0.6,0.5-1.3,0.6-1.7c0-0.3,0-0.4,0-0.5
	C53.5,194.2,53.4,194.2,53.4,194.1z M38,189.8c0.7-0.1,0.8-0.7,1-1.1c0.1-0.4,0.3-0.8,0.6-1.2c0.6-0.8,0.9-1.7,1.5-2.5
	c0-0.1,0-0.2,0.1-0.2c0-0.1-0.1-0.1-0.1-0.2c-0.1,0.1-0.1,0.1-0.2,0.2c-1.1,1.5-1.9,3.1-3,4.6c-0.1,0.1,0,0.2,0,0.4
	c0,0.1,0,0.2,0,0.2C37.8,189.9,37.9,189.8,38,189.8z M35.6,193c-0.7,1.1-1.5,2.2-2,3.4c-0.4,1-1.2,1.8-1.5,2.9
	c-1,1.1-1.1,2.7-2.2,3.8c0.1,0.6-0.3,1-0.5,1.5c-0.2,0.5-0.7,1-0.7,1.5c0,0.6-0.8,0.8-0.6,1.5c-0.9,1-0.9,2.4-1.8,3.4
	c-0.1,0.1,0,0.3,0,0.4c0,0.1,0.1,0.1,0.1,0.2c0-0.1,0.1-0.1,0.1-0.2c0.6-0.8,0.9-1.7,1.5-2.5c0.3-0.3,0.2-0.9,0.6-1.3
	c0.3-0.4,0.1-1,0.6-1.3c0.4-0.3,0.1-1,0.7-1.3c0.2-1.3,1.1-2.2,1.6-3.4c0.5-1.3,1.4-2.5,2-3.8c0.6-1.2,1.2-2.4,1.9-3.6
	c0.2-0.3,0.4-0.6,0.5-1c0-0.1,0-0.2,0-0.2C35.8,193,35.6,193,35.6,193z M25,191.4c-0.1-0.2-0.3-0.1-0.5,0c-0.2,0.2-0.4,0.2-0.6,0.5
	c-0.3,0.8-0.8,1.5-1.2,2.2c-0.2,0.3-0.5,0.6-0.8,0.7c-0.3,0.1-0.7,0.1-1-0.1c-0.5-0.3-0.8-0.1-1.1,0.3c-0.3,0.5-0.6,1-0.8,1.4
	c0,0.5,0,0.5,0.4,0.9c0.2,0.2,0.4,0.4,0.6,0.5c0.3,0.3,0.6,0.3,0.8-0.1c0.6-1.3,1.6-2.3,2.4-3.4c0.6-0.8,1.2-1.5,1.7-2.3
	C25,191.9,25,191.6,25,191.4z M87.3,38.4c0.2-0.1,0.5-0.5,0.4-0.9c0-0.1-0.1-0.1-0.2-0.2c-0.1,0.3-0.2,0.6-0.3,0.9
	C87.2,38.3,87.3,38.4,87.3,38.4z M63.4,128.4c0,0.2,0.2,0.5,0.2,0.8c0,0,0.1,0.1,0.2,0.1c0,0,0.1-0.1,0.1-0.1c0-0.1,0-0.3,0-0.4
	c0.1-0.7-0.5-1.3-0.3-2.1c0-0.1-0.2-0.2-0.3-0.3c-0.1,0.1-0.2,0.3-0.2,0.4C63.3,127.4,63.3,127.9,63.4,128.4z M62.4,120.6
	C62.4,120.6,62.3,120.6,62.4,120.6c-0.3,1.2,0.2,2.2,0.4,3.2c0,0,0.1,0.1,0.1,0.1c0-0.1,0.1-0.1,0.1-0.2c0-0.2,0-0.4,0-0.6
	c0,0,0.1,0,0.1,0c-0.2-0.8-0.4-1.6-0.6-2.3C62.6,120.6,62.5,120.6,62.4,120.6z M58.2,67.5c-0.1-0.4,0.2-0.8-0.2-1.1
	c0,0.3-0.1,0.7-0.1,1c0,0.3-0.2,0.7,0.2,1C58.1,68.1,58.2,67.8,58.2,67.5z M80.5,57.3c0,0.1,0,0.2,0.1,0.2c0.1,0,0.2-0.1,0.3-0.1
	c0.3-0.3,0.4-0.6,0.5-1c0.1-0.7,0.3-1.5,0.7-2.2c0.2-0.5,0.4-0.9,0.7-1.4c0.2-0.5,0-1.1,0.5-1.5c-0.3-0.7,0.5-0.9,0.6-1.5
	c0.1-0.6,0.5-1.1,0.6-1.7c0.1-0.6,0.3-1.2,0.6-1.8c0.4-0.7,0.5-1.5,0.8-2.2c0.4-0.7,0.1-1.7,0.8-2.3c-0.1-0.7,0.2-1.2,0.7-1.7
	c0.1-0.1,0.1-0.3,0.1-0.5c0-0.3,0-0.7,0-1c0-0.1-0.1-0.2-0.1-0.3c0,0.1-0.1,0.1-0.1,0.2c-0.5,1.3-1,2.6-1.6,3.9
	c-0.5,1.1-1.3,2.1-1.3,3.4c-0.5,0.9-0.5,1.9-0.7,2.8c-0.2,1-0.4,1.8-0.9,2.6c-0.3,0.5-0.5,1-0.7,1.5c-0.3,0.8-0.3,1.6-0.8,2.3
	c-0.4,0.5-0.6,1-0.5,1.5C80.5,56.8,80.5,57.1,80.5,57.3z M21.6,198.9c0,0-0.1,0-0.2,0c-0.9,0.7-1.1,1.9-1.5,2.8c0,0,0.1,0.1,0.2,0.2
	c0.2-0.1,0.4-0.3,0.5-0.5c0.4-0.7,0.5-1.5,1-2.2c0,0,0-0.2,0-0.3C21.6,199,21.6,198.9,21.6,198.9z M117,221.9c0,0.3,0,0.7,0.1,1
	c0.4-0.3,0.1-0.7,0.2-1.1c0-0.3-0.1-0.6-0.1-0.9C116.8,221.1,117,221.5,117,221.9z M22.6,197.5c-0.1,0.2-0.3,0.4-0.5,0.6
	c0,0,0,0.1,0,0.1c0,0,0.1,0.1,0.2,0.1c0.2-0.2,0.4-0.3,0.5-0.5c0,0,0-0.1,0-0.2C22.8,197.5,22.8,197.5,22.6,197.5z M26.4,189.7
	c0.6-0.7,1.2-1.5,1.7-2.2c0-0.1,0-0.3-0.1-0.3c-0.1-0.1-0.3,0-0.3,0c-0.6,0.6-1.2,1.1-1.7,1.7c-0.1,0.1-0.2,0.4-0.2,0.5
	c0.1,0.2,0.1,0.3,0.1,0.5C26,189.9,26.3,189.9,26.4,189.7z M41.7,183.7c0.1,0,0.2,0.1,0.2,0c0.2-0.3,0.3-0.6,0.5-0.9
	c-0.1-0.1-0.2-0.1-0.2-0.1C42,183.1,41.8,183.4,41.7,183.7C41.6,183.7,41.6,183.7,41.7,183.7z M49.4,183.5c0-0.1,0-0.2-0.1-0.2
	c-0.1,0.1-0.2,0.1-0.2,0.2c-0.4,0.8-1.1,1.4-1.3,2.3c-0.3,0.8-0.8,1.6-1.1,2.4c-0.8,2-1.8,3.9-2.6,5.9c-0.6,1.5-1.3,3.1-2,4.6
	c-0.5,1.1-0.9,2.1-1.3,3.2c-0.4,1.3-0.9,2.6-1.4,3.8c-0.6,1.5-0.8,3.2-1.7,4.6c0,0.1,0,0.2,0,0.3c-0.1,0.5-0.1,1-0.3,1.4
	c-0.3,0.9-0.5,1.7-0.5,2.4c0,0.5,0,0.7,0,0.9c0,0.1,0,0.2,0.1,0.2c0.1,0,0.2-0.1,0.3-0.2c0.2-0.1,0.4-0.3,0.4-0.5
	c0.2-1.1,0.8-2.1,0.8-3.3c0-0.2,0-0.5,0.1-0.6c0.5-0.5,0.4-1.3,0.7-1.9c0.2-0.6,0.8-1.2,0.6-2c0.6-1.5,0.8-3.2,1.5-4.7
	c0.5-1.1,0.7-2.2,1.2-3.3c0.5-1.1,0.8-2.2,1.4-3.3c0.6-1.2,1-2.4,1.5-3.6c0.5-1.2,1.1-2.4,1.6-3.6c0.7-1.5,1.4-3,2.1-4.6
	C49.2,183.9,49.3,183.7,49.4,183.5z M103.3,213.2c0-0.6-0.2-1.3-0.2-1.9c0-1.1-0.6-2.2-0.3-3.4c0-0.1,0-0.2-0.1-0.2
	c-0.1,0-0.2,0.1-0.2,0.1c0,0.6-0.4,1.1-0.1,1.7c-0.1,1.1,0.1,2.1,0.1,3.2c0,1,0,2,0.1,3c0.1,0.8,0.2,1.5,0,2.3c-0.2,1-0.5,2,0,3.1
	c0,0.1,0,0.3,0,0.4c-0.4,2.2-0.2,4.4-0.8,6.6c0,0.2-0.1,0.3-0.1,0.5c0,0.4-0.3,0.8,0.1,1.1c-0.2,0.8,0.1,1.6-0.1,2.4
	c-0.4,1.6-0.9,3.2-1.1,4.8c-0.2,1.7-0.5,3.4-0.8,5.1c0,0.1,0,0.2,0,0.3c0,0.1,0,0.2-0.1,0.2c-0.6,0.6-0.3,1.5-0.6,2.2
	c0,0.1,0.1,0.1,0.1,0.2c0-0.1,0.1-0.1,0.1-0.2c0-0.5,0.3-0.7,0.4-1.1c0.1-0.4,0.1-0.9,0.2-1.3c0.1-0.4,0.3-0.7,0.4-1.1
	c0.4-1.7,0.5-3.5,1-5.2c0.4-1.3,0.7-2.7,0.5-4.1c0.3-2.3,0.6-4.6,0.8-7c0-0.3,0.2-0.6,0.1-0.9c-0.2-1.2,0-2.4,0.1-3.6
	c0.1-0.5,0.3-1,0.2-1.4c-0.3-0.6,0-1.1,0-1.6c0-0.5-0.1-1.1,0-1.6c0.1-0.6,0-1.2,0-1.9C103.5,213.6,103.3,213.4,103.3,213.2z
	 M107.3,220c0-0.1-0.2-0.2-0.3-0.2c-0.1,0-0.2,0.2-0.2,0.3c0.1,1-0.1,1.9-0.3,2.9c0,0.3,0,0.6,0.1,0.8c0,0.1,0.1,0.1,0.1,0.2
	c0,0,0.1,0,0.1,0c0.1-0.1,0.2-0.3,0.4-0.7c0-0.2,0.2-0.6,0.2-1c0-0.5,0-1,0-1.6C107.4,220.4,107.4,220.2,107.3,220z M106.6,214.4
	c0,0.8,0.1,1.7,0.1,2.5c0.4-0.8,0-1.7,0.2-2.4c0-1,0-1.8,0-2.7c0-0.1-0.1-0.3-0.2-0.3c-0.1,0-0.2,0-0.3,0.1
	c-0.2,0.2-0.4,0.3-0.2,0.6c0.2,0.3,0.4,0.6,0.4,1C106.7,213.6,106.6,214,106.6,214.4z M99.3,226.3c0-0.4,0-0.9,0-1.3
	c0-0.4,0.2-0.8,0.2-1.2c0.1-1.8,0-3.5,0.2-5.3c0.2-1.3,0.3-2.8-0.2-4.2c-0.1-2.3-0.2-4.7-0.3-7c0-0.3,0.1-0.6,0-0.9
	c-0.4-1.2-0.4-2.4-0.5-3.5c0-0.5,0.2-1.1,0-1.4c-0.3-0.6-0.1-1.1-0.2-1.6c-0.1-0.5-0.3-1.1-0.2-1.6c0-0.7-0.2-1.2-0.3-1.8
	c0-0.2-0.2-0.4-0.2-0.7c-0.1-0.6-0.4-1.3-0.5-1.9c-0.2-1.1-0.9-2.1-0.8-3.3c0-0.1-0.1-0.1-0.1-0.2c0,0.1-0.1,0.1-0.1,0.2
	c0.1,0.6-0.3,1.2,0.2,1.7c0,1.1,0.5,2.1,0.6,3.1c0.2,1,0.3,2,0.6,3c0.2,0.8,0.4,1.5,0.4,2.3c0,1-0.1,2.1,0.5,3c0.1,0.1,0,0.2,0,0.4
	c-0.1,2.2,0.5,4.4,0.3,6.6c0,0.2,0,0.3,0,0.5c0,0.4-0.1,0.8,0.3,1.1c0,0.8,0.3,1.5,0.3,2.4c-0.1,1.6-0.4,3.3-0.3,4.9
	c0.1,1.7,0,3.5,0,5.2c0,0.1,0,0.2,0,0.3c0,0.1,0,0.2,0,0.2c-0.5,0.7-0.1,1.5-0.2,2.2c0,0.1,0.1,0.1,0.1,0.2c0-0.1,0.1-0.1,0.1-0.2
	C98.9,227.1,99.2,226.7,99.3,226.3z M100.8,246.9c-0.2,0.1-0.5,0.1-0.4,0.5c0.1,0.3,0.1,0.7,0,1.1c-0.1,0.4-0.3,0.7-0.4,1.1
	c-0.3,0.8-0.6,1.6-0.9,2.4c0.7-0.6,0.7-1.6,1.1-2.2c0.4-0.9,0.7-1.7,1-2.5c0-0.1,0-0.3,0-0.3C101,246.9,100.9,246.9,100.8,246.9z
	 M109.5,213.2c0,0.3,0.1,0.5,0.2,0.8c0.1-0.3,0.3-0.5,0.2-0.8c-0.1-1.8-0.3-3.6-0.4-5.8c-0.1-0.3-0.2-0.6-0.3-1
	c-0.1,0.3-0.3,0.6-0.2,0.9c0.1,0.9,0.3,1.9,0.4,2.8C109.4,211.3,109.4,212.2,109.5,213.2z M97.7,230.4c0,0-0.1,0-0.1,0.1
	c-0.1,0.3-0.4,0.6-0.2,1c-0.2,0.6-0.1,1.3-0.3,1.9c-0.1,0.6-0.2,1.2-0.2,1.8c0,0.5-0.1,0.9-0.2,1.4c-0.2,0.6-0.5,1.2-0.3,1.8
	c0,0.1,0,0.1-0.1,0.2c-0.5,1.3-0.6,2.6-1.2,3.9c0,0.1-0.1,0.2-0.1,0.3c-0.1,0.2-0.2,0.4-0.1,0.7c-0.2,0.5-0.1,0.9-0.3,1.4
	c-0.4,0.9-0.9,1.8-1.1,2.8c-0.3,1-0.7,2-1,3c0,0,0,0.1-0.1,0.1c0,0,0,0.1-0.1,0.1c-0.4,0.3-0.4,0.8-0.6,1.2c0,0,0,0.1,0,0.1
	c0,0,0.1-0.1,0.1-0.1c0-0.3,0.3-0.4,0.4-0.6c0.1-0.2,0.2-0.5,0.3-0.7c0.1-0.2,0.3-0.4,0.4-0.6c0.4-1,0.7-2,1.2-3
	c0.4-0.7,0.7-1.5,0.7-2.4c0.4-1.4,0.8-2.7,1.2-4.1c0.1-0.2,0.2-0.3,0.2-0.5c0-0.7,0.2-1.4,0.4-2.1c0.1-0.3,0.3-0.6,0.3-0.8
	c-0.1-0.4,0.1-0.6,0.2-1c0.1-0.3,0.1-0.7,0.2-1c0.2-0.4,0.1-0.7,0.2-1.1c0-0.1,0-0.3,0-0.4c0.1-0.4,0-0.8,0.1-1.2
	c0.1-0.7-0.1-1.4,0.2-2.1C97.8,230.5,97.7,230.4,97.7,230.4z M132.8,225.3c-0.2,0.6,0.1,1.3-0.2,2c-0.3,0.8-0.3,1.7-0.3,2.6
	c0,1-0.2,2-0.5,3c-0.2,0.9-0.2,1.8-0.8,2.5c-0.1,0.2-0.1,0.5-0.1,0.7c0.1,0.6-0.1,1.2-0.3,1.7c-0.2,0.4-0.2,0.9-0.3,1.3
	c-0.1,0.4-0.4,0.8-0.5,1.2c-0.1,0.4-0.2,0.9-0.3,1.3c-0.2,0.6-0.6,1.1-0.6,1.8c-1,2-1.5,4.2-2.7,6.1c-0.3,0.5-0.5,1-0.8,1.5
	c-0.6,0.8-0.8,1.8-1.5,2.5c0,0.6-0.8,0.7-0.8,1.2c0,0.6-0.7,0.6-0.8,1.1c-0.1,0.4-0.5,0.7-0.8,1.1c-0.3,0.4-0.4,1-0.8,1.2
	c-0.8,0.6-1.2,1.7-2.2,2c-0.3,0.1-0.4,0.4-0.6,0.6c-1.2,1.1-2.3,2.2-3.5,3.2c-1.5,1.2-2.9,2.5-4.5,3.6c-1.2,0.9-2.3,1.9-3.5,2.7
	c-0.9,0.5-1.6,1.3-2.5,1.9c-0.8,0.5-1.6,1-2.3,1.6c-0.4,0.3-0.8,0.1-1.2,0.3c-1.1,0.6-2.4,1-3.4,1.9c-0.3,0.3-0.8,0.4-1.2,0.5
	c-0.3,0.1-0.5,0.4-0.5,0.8c0,0.4,0.2,0.7,0.5,0.8c0.6,0.2,1.1,0.9,1.9,0.3c0,0,0.2,0,0.2,0.1c0,0.1,0,0.2,0,0.3
	c-0.1,0.2-0.5,0.1-0.6,0.5c-0.1,0.7-0.8,0.8-1.4,0.9c-0.4,0.1-0.9,0-1.3,0c-1.1-0.1-1.9,0.4-2.7,1.1c-0.9,0.9-2.1,1.4-3.1,2.3
	c-0.6,0.5-1.3,0.9-2,1.3c-0.5,0.3-1.1,0.6-1.6,0.8c-0.3,0.1-0.8,0.1-1-0.3c-0.1-0.1-0.2-0.3-0.4-0.4c-0.6-0.4-1.3-0.2-1.5,0.5
	c-0.2,0.5-0.4,1-0.5,1.5c-0.2,0.9-1,1.3-1.6,1.8c0,0-0.1,0.1-0.1,0.1c-0.9-0.2-1.6,0.4-2.4,0.5c-0.8,0.1-1.6-0.3-2.4-0.5
	c-0.5-0.1-1.1,0-1.2,0.3c-0.1,0.5-0.3,0.8-0.6,1.1c0.1,0.3,0.2,0.5,0.3,0.8c0.1,0.3,0.3,0.7,0.4,1.1l0.2,0.6l0.1,0.2c0,0,0,0,0,0
	c0.1,0.2,0.8,0.7,1.4,1c1.4,0.7,3,1.3,4.6,2c-1.7,0.5-3.5,0.5-5.3,0.2c-0.5-0.1-0.9-0.2-1.4-0.4c-0.5-0.2-1-0.5-1.5-1
	c-0.1-0.1-0.2-0.3-0.3-0.5l-0.2-0.3l-0.3-0.6c-0.2-0.4-0.4-0.8-0.5-1.3c-0.1-0.4-0.3-0.8-0.4-1.3c-0.1,0-0.1,0.1-0.2,0.1
	c-0.4,0-0.8,0.3-1.1,0.2c-0.9-0.1-1.5,0.4-2.1,0.8c-0.6,0.4-1.4,0.8-1.7,1.6c-0.1,0.3-0.5,0.7-0.8,1c-0.3,0.3-0.4,0.9-0.8,1.2
	c-0.4,0.3-0.7,0.7-1,1c-0.9,0.9-2,1.2-3.3,1.2c-0.4,0-0.6-0.2-0.7-0.5c0-0.2,0.1-0.5,0.2-0.7c0.4-0.5,0.9-0.9,1.4-1.4
	c0.1-0.1,0.2-0.2,0.4-0.3c0,0.2,0.1,0.3,0.1,0.5c0,0.1,0,0.3,0,0.4c0.1,0.1,0.4,0.2,0.4,0.1c0.2-0.2,0.4-0.4,0.5-0.7
	c0.1-0.3,0.1-0.6,0.1-1c-0.3,0-0.7-0.2-0.8-0.1c-0.3,0.4-0.8,0.3-1.2,0.6c-1.2,0.9-2.7,1.7-4.2,2.1c-0.5,0.2-0.9,0.2-1.2-0.3
	c-0.7-1-1.6-0.7-2.5-0.6c-0.2,0-0.4,0.2-0.6,0.2c-1.1,0-1.7,0.5-1.9,1.5c0,0.1-0.1,0.2-0.2,0.3c-0.2,0.3-0.3,0.2-0.5,0
	c-0.2-0.3-0.4-0.7-0.4-1c0-0.6-0.4-1-0.9-1.3c-0.6-0.5-0.5-0.5-0.2-1.3c0.1-0.2,0.1-0.3,0.4-0.3c0.5,0,1,0,1.4,0
	c0.5,0,0.8,0.1,1.1,0.5c0.1,0.1,0.3,0.3,0.5,0.3c0.8,0,1.6,0.2,2.3,0c0.6-0.2,1.4-0.1,1.9-0.7c0.9-0.2,1.4-0.9,2-1.5
	c0.1-0.1,0.2-0.2,0.2-0.3c-0.1-1,0.6-2,0.1-3.1c-0.3-0.5-0.1-1.3,0.3-1.9c0.2-0.2,0.3-0.3,0.6,0c0.2,0.3,0.6,0.5,0.4,0.9
	c-0.4,0.7,0.1,1.2,0,1.9c0,0.3,0.1,0.7,0.5,0.9c0.2,0.1,0.4-0.3,0.5-0.8c0.2-0.8,0.3-1.6,0.3-2.5c0-0.3,0-0.5-0.4-0.6
	c-0.5-0.1-1-0.5-1.2-1c-0.1-0.1-0.2-0.4-0.1-0.4c0.7-0.9-0.2-1.7,0-2.5c0.1-0.3-0.4-0.8-0.7-0.9c-0.4-0.1-0.8,0.2-0.8,0.6
	c-0.1,0.8-0.1,1.6-0.3,2.3c-0.2,0.6-0.2,1.2-0.5,1.7c-0.3,0.6-0.1,1.4-0.7,1.9c0,0,0,0.4,0.1,0.4c0.5,0.2,0.3,0.8,0.6,1.2
	c0.2,0.2-0.2,0.9,0.5,0.9c0,0.4,0,0.8,0,1.1c0,0-0.3,0.1-0.3,0.1c-0.4-0.5-1.1-0.8-1.2-1.6c-0.1-0.6-0.6-1.1-1-1.7
	c-0.1-0.2-0.2-0.5-0.4-0.6c-0.4-0.3-0.1-0.5,0.1-0.7c0.2-0.1,0.4-0.2,0.5-0.3c0.7-0.4,0.9-0.9,0.6-1.6c-0.1-0.3-0.1-0.6,0-0.9
	c0.1-0.7,0-1.4,0.1-2.2c0.1-0.9-0.3-1.7-0.6-2.5c-0.2-0.6-0.9-1.1-1.6-1.2c-0.5-0.1-1-0.3-1.5-0.5c-1.4-0.8-2.7-1-4-0.6
	c-0.6,0.2-1.3,0.1-1.7-0.4c-0.3-0.3-0.6-0.3-0.9-0.4c-0.7-0.1-1.4-0.2-2-0.5c-1.7-0.8-3.4-1.3-5-2.3c-0.1-0.1-0.3-0.1-0.4-0.2
	c-0.5-0.4-0.8-1-1.6-1.2c-0.5-0.1-1-0.7-1.5-1.1c-0.1,0-0.1-0.1-0.2-0.1c-1.2-0.3-2.1-1.2-3.1-1.9c-0.9-0.7-1.8-1.3-2.9-1.5
	c-1.1-0.2-1.9-1-2.7-1.7c-1.5-1.3-2.6-2.9-3.4-4.7c-0.4-0.8-1-1.4-1.7-1.8c-0.4-0.2-0.5-0.5-0.7-0.8c-1-2.1-2.2-3.9-3.5-5.8
	c-1-1.4-1.9-2.9-2.9-4.4c-0.4-0.6-0.6-1.2-0.8-1.9c-0.3-1.3-0.7-2.6-1.4-3.7c-0.7-1.1-1.1-2.3-1.7-3.5c-0.3-0.7-0.6-1.5-0.6-2.4
	c0-0.4-0.3-0.9-0.5-1.3c-0.2-0.5-0.1-1.2-0.5-1.6c-0.4-0.5-0.3-1.2-0.6-1.7c-0.3-0.5-0.4-1-0.6-1.6c-0.2-0.8-0.5-1.7-0.4-2.6
	c0.1-0.5-0.1-1-0.3-1.4c-0.2-0.4-0.4-0.9-0.5-1.4c-0.1-0.5,0-1-0.3-1.4c0.2-1.5-0.4-2.9-0.3-4.4c0-0.6-0.1-1.2,0-1.7
	c0.2-0.5,0.2-1.1,0.2-1.6c0-0.5,0-1.1,0.2-1.6c0.2-0.4-0.2-0.9,0.2-1.3c0-1.1,0.3-2.2,0.5-3.3c0.2-1.1,0.4-2.1,0.7-3.1
	c0.1-0.5-0.1-1.1,0.3-1.6c0.3-0.3,0.2-0.9,0.3-1.4c0.1-0.5,0.4-0.9,0.5-1.3c0.2-0.6,0.3-1.2,0.5-1.7c0.3-0.7,0.8-1.2,0.9-2
	c0.1-0.4,0.2-1.1,0.8-1.2c0.2-0.8,0.8-1.3,0.9-2.1c0-0.3,0.2-0.6,0.3-0.9c0.8-1.5,1.6-3.1,2.5-4.5c-0.1-0.6,0.9-0.3,0.8-0.9
	c1-1.4,1.8-2.9,2.8-4.3c0.2-0.3,0.6-0.5,0.8-0.9c0.2-0.3,0.5-0.6,0.8-0.9c0.8-0.7,1.5-1.7,2.4-2.4c0.4-0.3,0.7-0.9,1.2-1.2
	c0.4-0.3,0.9-0.6,1.2-1.1c0.1-0.2,0.3-0.2,0.5-0.4c0.2-0.1,0.5-0.3,0.5-0.4c0-0.8,0.6-1.1,1-1.5c1.3-1.3,2.6-2.6,4-3.8
	c1.1-1,2.3-1.8,3.5-2.8c0.6-0.5,1.2-1,1.8-1.6c1.4-1.2,2.7-2.4,4.1-3.6c1.5-1.2,3-2.5,4.4-3.9c0.4-0.4,0.7-0.8,1.1-1.1
	c0.3-0.3,0.7-0.5,1.1-0.8c0.6-0.6,1.2-1.3,1.8-1.9c0.3-0.3,0.5-0.6,0.8-1c1.3-1.5,2.6-3.1,3.6-4.8c0.8-1.4,1.5-2.8,2.1-4.3
	c0.2-0.5,0.4-1.1,0.4-1.6c0-0.6-0.1-1.2-0.3-1.8c-0.1-0.4-0.5-0.8-0.8-1.1c-0.1-0.1-0.3-0.1-0.4,0c-0.7,0.4-1.3,0.8-2,1.2
	c-0.4,0.3-0.9,0.6-1.4,0.8c-0.1,0-0.3-0.1-0.4-0.2c-0.1-0.6,0.1-1.1,0.4-1.5c0.6-1.1,1.4-2,2.8-2.3c0.2-0.1,0.3,0,0.5,0.1
	c0.9,0.3,1.5-0.1,1.5-1.1c0-0.7,0-1.5,0-2.2c0-0.6-0.2-1.2-0.2-1.8c0-0.6,0.1-1.3,0-1.9c-0.4-1.5-0.5-3-1.1-4.5
	c-0.1-0.2-0.2-0.4-0.2-0.6c0-1,0-2.1-0.2-3.1c-0.3-1.6-0.7-3.2-1.1-4.8c-0.4-0.3,0.1-1-0.4-1.2c-0.1-1.4-1-2.7-1-4.1
	c-0.6-0.6-0.7-1.5-1.1-2.3c-0.5-0.9-1.1-1.8-1.7-2.7c-0.3-0.4-0.5-1-0.8-1.3c-1.2-1.1-2-2.6-3.4-3.4c-0.2-0.1-0.4-0.2-0.5-0.5
	c-0.1-0.2-0.4-0.3-0.6-0.4c-0.6-0.1-1.1-0.3-1.6-0.5c-0.3-0.1-0.5-0.3-0.8,0c-0.1,0.1-0.4-0.1-0.6-0.1c-0.8-0.3-1.6-0.7-2.5-0.9
	c-0.8-0.2-1.7-0.4-2-1.4c-0.9-0.2-0.7-0.9-0.7-1.5c0-0.4,0.1-0.6,0.4-0.9c0.7-0.7,1.4-1.5,2.4-1.8c0.3-0.1,0.3-0.3,0.4-0.5
	c0.2-0.1,0.5-0.1,0.7-0.2c1.2-0.5,1.3-0.5,2.7-0.2c0.1,0,0.3,0,0.4,0c1-0.1,1.9,0.3,2.8,0.5c0.7,0.2,1.5,0.5,2.2,0.6
	c0.7,0.2,1.3,0.5,2,0.9c1.1,0.7,2.2,1.3,3.1,2.1c0.3,0.3,0.7,0.5,0.6,1c0,0.1,0.1,0.2,0.2,0.2c0.8,0.3,1.2,0.7,1.8,1.6
	c0.1,0.1,0.1,0.2,0.2,0.3c0.2,0.2,0.3,0.3,0.5,0.1c0.2-0.2,0.4-0.4,0.6-0.5c0.3-0.2,0.3-0.4,0.1-0.7c-0.1-0.2-0.1-0.5-0.1-0.7
	c0-1.1,0-2.2,0-3.4c0-0.5,0.1-1-0.2-1.5c-0.2-0.4,0.1-0.9-0.2-1.5c-0.2-0.3-0.1-0.9-0.1-1.4c0-0.6,0.1-1.2-0.3-1.7
	C54,93,54.1,92.4,54,91.9c-0.4-1.9-0.2-3.7-0.2-5.6c0-0.1,0-0.3,0-0.4c-0.8-0.5-0.5-1.3-0.5-2c0-1.7-0.5-3.3-0.3-4.9
	c-0.6-1.9-0.2-3.8-0.2-5.7c-0.1-2.5,0-5,0-7.5c0-0.8,0.2-1.6,0.2-2.4c0-0.8-0.2-1.6,0.1-2.3c0.4-1-0.1-2.1,0.5-3
	c-0.2-0.9,0.1-1.8,0.3-2.7c0.2-1.1,0.2-2.2,0.7-3.2c0,0,0.1-0.1,0.1-0.1c-0.2-1.1,0.3-2,0.5-3c0.1-0.4,0.2-0.8,0.4-1.3
	c0.4-0.8,0.6-1.7,0.6-2.6c0-0.7,0.2-1.5,0.5-2.1c0.6-1.2,1-2.5,1.5-3.8c0.2-0.5,0.5-0.8,0.7-1.3c0.3-1.1,1-2,1.4-3
	c0.6-1.3,1.5-2.4,2.3-3.6c0.3-0.4,0.6-0.9,1-1.3c0.7-0.7,1.3-0.7,1.9,0c0.2,0.2,0.4,0.4,0.6,0.5c0.5,0.5,0.7,1,0.7,1.7
	c0,0.8,0,1.6,0,2.5c0,0.6,0,1.2,0,1.8c0,0.5,0.1,1.1-0.2,1.6c-0.2,0.4,0.2,1-0.3,1.5c-0.1,0.1,0,0.3,0,0.5c-0.1,0.5,0.2,1-0.2,1.5
	c-0.3,0.4,0,0.9-0.3,1.4c-0.3,0.6-0.2,1.4-0.3,2.1c-0.1,0.4-0.1,0.9-0.3,1.2c-0.2,0.4-0.2,0.7-0.3,1.1c-0.1,0.3-0.4,0.5-0.5,0.8
	c-0.4,0.8-0.2,1.6-0.1,2.5c0,0.3,0.1,0.6,0.1,0.8c0,2.1,0,4.2,0,6.3c0,0.3,0.1,0.6-0.2,1c-0.1,0.2,0,0.6,0.1,0.9
	c0.3,1,0.5,1.9,0.7,3c0.1,0.9,0.2,1.8,0.2,2.8c0,0.4,0.2,0.6,0.4,0.7c0.2,0.1,0.5,0.1,0.7-0.2c1.1-1.1,2.4-1.7,3.8-2.4
	c0.4-0.2,0.7-0.4,1-0.6c0.9-0.6,0.8-1.6,1.3-2.4c0.6-3.7,2.2-7.1,3.2-10.6c0.3-1,0.8-1.8,1-2.8c0.3-1,0.8-1.8,1-2.8
	c0.2-0.8,0.8-1.5,1.1-2.2c0.2-0.4,0.4-0.7,0.4-1.1c-0.1-0.5,0.8-0.7,0.5-1.3c0.6-1.6,1.2-3.2,1.9-4.8c0.7-1.7,1.5-3.3,2.4-4.9
	c0.8-1.4,1.5-2.8,2.3-4.2c0.5-0.8,1-1.6,1.2-2.5c0.2-0.7,0.4-1.4,0.9-2c0.4-0.5,0.8-1.1,1.2-1.7c0.2-0.2,0.3-0.5,0.4-0.7
	c0.7-1.6,1.5-3,2.7-4.2c0.1-0.1,0.1-0.2,0.2-0.3c0.6-1.2,1.5-2.2,2.3-3.2c0.8-0.9,1.8-1.5,2.7-2.3c0.7-0.6,1.3-1,2.2-1.3
	c0.8-0.3,1.6-0.4,2.3-0.7c0.3-0.2,0.8-0.1,1.2,0c0.1,0,0.3,0.1,0.4,0.3c0.6,1,1.2,2.1,1.2,3.3c0,0.8,0,1.6-0.2,2.4
	c-0.2,0.7-0.5,1.3-0.7,2c0,0-0.1,0.1-0.1,0.1c0,1-0.4,1.9-0.6,2.9c0,0.1,0,0.3,0,0.4c-0.7,1-0.8,2.2-0.9,3.4c0,0.6-0.4,1.2-0.4,1.9
	c-0.1,0.8-0.4,1.5-0.6,2.2c-0.5,1.9-1,3.8-1.7,5.6c-0.4,0.8-0.5,1.8-1.1,2.5c-0.2,0.2-0.1,0.6-0.2,0.9c-0.5,1.2-0.6,2.4-1,3.6
	c-0.4,1.3-0.7,2.6-1.1,3.9c-0.3,1.1-0.5,2.2-1,3.2c-0.5,1-0.7,2.2-0.9,3.2c-0.2,1.2-0.5,2.3-0.6,3.5c0,0.6-0.1,1.3-0.2,2
	c-0.1,0.6-0.1,1.2-0.5,1.7c0,0,0,0.1,0,0.1c0.1,1.6-0.6,2.9-1,4.4c-0.3,1-0.4,2-0.8,2.9c-0.3,1-0.6,1.9-1.2,2.8
	c-0.3,0.4-0.3,0.9-0.4,1.4c-0.1,0.5-0.1,1.1-0.3,1.6c-0.1,0.4-0.6,0.6-0.5,1.1c0,0.3-0.1,0.7-0.3,1c-0.3,0.7-0.5,1.4-0.5,2.1
	c0,0.6-0.2,1.1-0.3,1.7c-0.1,0.4-0.2,0.9-0.2,1.3c0,0.9-0.2,1.7-0.5,2.5c-0.1,0.2-0.1,0.3-0.1,0.5c0,0.4-0.2,0.7-0.4,1
	c-0.3,0.5-0.2,1.1-0.7,1.5c0,0,0,0.2,0,0.3c0,0.2-0.1,0.5,0.2,0.5c0.2,0,0.4,0,0.6-0.1c0.3-0.2,0.6-0.4,0.7-0.7
	c0.3-0.6,0.6-1.1,0.8-1.7c0.6-1.8,1.6-3.3,3.2-4.4c0.4-0.2,0.7-0.1,1-0.3c0.3-0.2,0.6-0.3,0.8,0c1.4,0,1.7,1,2.2,2
	c0.4,0.8,0.3,1.7,0.5,2.5c0.3,1.4,0.1,2.8,0.2,4.2c0,0.7-0.2,1.5-0.2,2.2c0,0.8,0,1.6,0,2.3c0,0.2-0.1,0.4-0.2,0.6
	c-0.2,0.5-0.3,0.9-0.3,1.4c-0.1,0.9-0.4,1.8-0.7,2.7c-0.1,0.5-0.5,0.8-0.1,1.5c0.3,0.6,0.2,1.5,0,2.2c-0.2,0.5-0.2,1-0.2,1.5
	c0,0.2-0.1,0.4-0.1,0.6c0,0.2-0.1,0.5,0,0.7c0.2,0.5,0.2,0.9,0,1.4c-0.2,0.5,0.1,1.1-0.3,1.6c-0.1,0.2,0.4,0.9,0.7,1
	c0.1,0,0.2,0,0.3-0.1c0.3-0.2,0.6-0.5,0.9-0.6c1.2-0.6,2.5,0,2.7,1.4c0.3,1.5,0.2,1.5-0.2,3.3c-0.2,1-0.7,1.8-1,2.7
	c-0.3,0.8-0.5,1.6-0.8,2.4c-0.2,0.5-0.5,1-0.7,1.5c-1.1,2.4-2.3,4.7-3.4,7c-0.3,0.7-0.6,1.4-0.9,2.1c-0.3,0.7-0.7,1.4-0.9,2.1
	c-0.2,0.7-0.6,1.4-0.9,2.1c-0.2,0.4-0.5,0.7-0.8,1.1c-0.4,0.7-1,1.4-1.1,2.3c0,0.2-0.1,0.3-0.1,0.5c-0.3,0.5-0.4,1-0.4,1.5
	c0,0.3-0.1,0.6-0.2,0.9c-0.2,0.6-0.4,1.2-0.3,1.8c0.1,0.4,0,0.9,0,1.3c0.1,1,0,1.9-1,2.5c-0.1,0.1-0.3,0.2-0.3,0.4
	c-0.3,0.5-0.2,0.9,0.4,0.9c0.8,0,1.6-0.1,2.3-0.3c1.3-0.3,1.3-0.3,2.5,0c0.6,0.1,1.2,0.2,1.8,0.3c0.5,0.1,0.6,0.3,0.7,0.7
	c0.1,0.8,0.3,1.5,0.5,2.3c0.2,0.7,0.1,1.5-0.7,2c-0.3,0.2-0.7,0.1-1,0.2c-0.3,0.1-0.5-0.1-0.7-0.4c-0.4-0.5-1-0.9-1.5-1.3
	c-0.2-0.1-0.6-0.1-0.9-0.1c-1.3-0.3-2,0.6-2.7,1.5c-0.2,0.3-0.4,0.6-0.5,1c0,0.1,0,0.3,0.1,0.3c0.1,0.1,0.3,0.1,0.3,0
	c0.7-0.6,1.3,0.1,2,0.1c0.1,0,0.2,0.3,0.1,0.4c-0.1,0.3-0.1,0.6-0.3,0.8c-0.6,0.6-0.8,1.4-1.3,2.1c-1.1,1.4-1.4,3-1.2,4.7
	c0.1,0.9,0.3,2,0.8,2.8c0.5,0.8,0.3,1.8,1,2.4c0.1,1.2,1,2,1.6,2.8c1,1.3,2.2,2.5,3.3,3.7c0.7,0.7,1.6,1.3,2.4,1.9
	c0.7,0.4,1.2,1,1.8,1.5c1.2,1.1,2.4,2.3,3.7,3.4c0.8,0.7,1.8,1.4,2.7,2c0.9,0.6,1.7,1.3,2.6,1.9c1.2,1,2.4,2,3.6,3
	c1,0.8,1.8,1.7,2.4,2.7c0.1,0.2,0.4,0.2,0.6,0.4c1.1,1.2,2.7,1.9,3.7,3.2c0.5,0.6,1,1.2,1.6,1.8c0.5,0.6,1.1,1,1.5,1.7
	c0.4,0.7,1,1.3,1.8,1.6c0.4,0.1,0.6,0.3,0.8,0.6c0.6,0.9,1.4,1.8,2.1,2.6c0.4,0.4,0.8,0.8,0.9,1.4c0,0.1,0.1,0.3,0.2,0.3
	c0.8,0.3,1.1,0.9,1.4,1.6c0.1,0.2,0.3,0.3,0.4,0.5c0.4,0.4,0.8,0.7,0.9,1.3c0.1,0.3,0.2,0.6,0.4,0.7c0.8,0.7,1,1.8,1.6,2.6
	c0.2,0.4-0.1,0.9,0.4,1.2c-0.1,1,0.7,1.8,0.5,2.9c-0.1,0.5,0.6,0.9,0.5,1.5c0.8,1.2,0.7,2.7,1.3,4c0.1,0.1,0,0.3,0,0.4
	c0,1.2,0.2,2.4,0.5,3.5c0.1,0.4,0,0.8,0,1.2c0,0.9,0,1.8,0,2.7c0,0.4,0,0.9,0,1.3c0,0.4,0.2,0.8,0.2,1.2
	C133.1,224,133,224.6,132.8,225.3z M92.6,94.7c-0.1,0.2-0.3,0.4-0.2,0.5c0.2,1.4-0.4,2.7-0.3,4c0,0.7,0.2,1.4-0.2,2.1
	c-0.1,0.1-0.1,0.4,0,0.5c0,0.1,0.2,0.2,0.4,0.2c0.1,0,0.4-0.1,0.4-0.2c0.1-0.6,0.2-1.1,0.3-1.7c0-0.2,0.1-0.5,0.2-0.7
	c0.3-0.8,0.3-1.8,0.6-2.6c0.1-0.3,0-0.6,0-0.9c0-0.4,0.1-0.8,0-1.2c-0.1-0.3-0.4-0.5-0.6-0.8C92.9,94.3,92.8,94.5,92.6,94.7z
	 M91.4,82.1c0,0.1,0.2,0.1,0.2,0.1c0.3-0.3,0.6-0.6,0.9-0.9c-0.1-0.2-0.2-0.4-0.2-0.4c-0.1,0-0.3,0.1-0.4,0.2
	c-0.2,0.2-0.4,0.5-0.5,0.8C91.3,81.9,91.3,82,91.4,82.1z M90.3,112.4c0-0.1,0-0.3-0.1-0.4c-0.1-0.1-0.6,0-0.6,0.2c0,0.1,0,0.3,0,0.4
	c0,0.1,0,0.2,0,0.2c0.1,0.1,0.2,0.2,0.3,0.2c0.1,0,0.2,0,0.2-0.1C90.1,112.8,90.2,112.6,90.3,112.4z M87.5,91.8
	c0,0.1,0.1,0.1,0.1,0.2c0.1,0,0.2-0.1,0.1-0.1c-0.2-0.6,0.5-0.7,0.5-1.2c0-0.5,0.2-0.9,0.5-1.4c0.3-0.4,0.5-1,0.5-1.5
	c-0.1-1.3,0.5-2.4,0.7-3.6c0.1-0.7,0.2-1.4,0.4-2.1c0-0.1-0.1-0.1-0.1-0.2c-0.1,0-0.1,0.1-0.2,0.1c-0.2,0.3-0.5,0.4-0.5,0.8
	c-0.1,1.1-1.1,1.8-1.1,2.9c0,0-0.1,0.1-0.1,0.1c-0.5,0.4-0.5,1-0.6,1.6c-0.1,0.6-0.3,1.1-0.2,1.7c0,0.1,0.1,0.2,0.2,0.3
	c0,0.3,0,0.6,0,1c0,0.3-0.1,0.5-0.2,0.6C87.5,91.5,87.4,91.6,87.5,91.8z M40.7,102.6c0-0.1-0.1-0.2-0.1-0.4
	c-0.1-0.2-0.2-0.5-0.3-0.7c-0.5-0.8-1.1-1.4-2.4-1.3c-0.1,0-0.5,0.1-0.8,0.3c-0.4,0.2-0.4,0.6-0.4,1c0,0.4,0.4,0.2,0.6,0.3
	c0.8,0.7,2,0.4,2.8,0.9C40.2,102.9,40.5,102.7,40.7,102.6z M50.1,109.8c-0.4-0.6-0.8-1.1-1.2-1.7c0,0-0.3,0-0.3,0.1
	c-0.1,0.1,0,0.2-0.1,0.4c0,0.1,0,0.4,0.2,0.5c0.3,0.4,0.6,0.7,1,1c0.1,0.1,0.3,0.1,0.3,0C50.1,110.1,50.2,109.9,50.1,109.8z
	 M53.2,115.5c0-0.1-0.2-0.3-0.2-0.3c-0.1-0.1-0.1-0.1-0.1-0.1c0,0.2-0.1,0.5-0.1,0.7c0,0.1,0.1,0.2,0.1,0.3c0,0,0.1-0.1,0.1-0.1
	C53,115.9,53.2,115.7,53.2,115.5z M8.4,214.6c0-0.7,0-1.2,0-1.6c0,0-0.1-0.1-0.1-0.1c-0.1,0-0.2,0-0.2,0.1c-0.1,0.3-0.2,0.6-0.3,0.9
	c0,0.3,0.1,0.7,0,0.9c-0.5,0.7-0.1,1.5-0.2,2.2c0,0.1,0.1,0.1,0.1,0.2c0-0.1,0.1-0.1,0.1-0.2C8.4,216.2,8.5,215.3,8.4,214.6z
	 M113.9,240.6c0-0.3,0-0.7,0-1c0-0.1-0.1-0.3-0.2-0.4c-0.1,0.1-0.3,0.2-0.3,0.3c-0.5,1.2-0.8,2.5-1.1,3.8c-0.2,0.8-0.2,1.7-0.5,2.5
	c-0.2,0.8,0,1.5,0.4,2.3c0.1,0.3,0.3,0.2,0.4,0c0.1-0.1,0.2-0.4,0.1-0.4c-0.5-0.7-0.2-1.3,0.1-1.8c0.3-0.5,0.5-1,0.4-1.6
	c0-0.1-0.1-0.3,0-0.4c0.6-0.4,0.1-1,0.4-1.5C114,241.8,113.9,241.2,113.9,240.6C113.9,240.6,113.9,240.6,113.9,240.6z M117.3,235.2
	c-0.5,0.4-0.2,1-0.3,1.4c0,0.1,0.1,0.1,0.1,0.2c0.1,0,0.1-0.1,0.2-0.1c0.2-0.3,0.4-0.6,0.5-0.9c1-1.9,1.5-3.9,1.6-6.1
	c0-0.6,0-1.1,0-1.7c0-0.3-0.3-0.5-0.6-0.5c-0.4,0-0.3,0.3-0.4,0.5c-0.3,0.5-0.2,1-0.2,1.5c0,0.3,0,0.5-0.2,0.8
	c-0.5,0.8-0.6,1.7-0.6,2.6C117.3,233.7,117.3,234.4,117.3,235.2z M127.9,222.5c0.3-1.3,0.5-2.8-0.7-4l0,0l0,0l-0.2-1.6
	c-0.3-1.8-0.5-3.6-0.7-5.4c0-0.1,0-0.2,0-0.4c0-0.2,0-0.4-0.1-0.5c-0.7-0.9-0.9-1.9-1.1-2.9c0-0.2-0.1-0.4-0.1-0.6
	c0-0.2,0-0.4,0-0.5c0.1-0.4,0.1-0.6-0.2-0.8c-0.5-0.4-0.5-0.8-0.5-1.1c0-0.2,0-0.3-0.1-0.5c-0.1-0.1-0.1-0.3-0.2-0.5
	c-0.2-0.4-0.4-0.7-0.4-1.1c0-0.4-0.2-0.7-0.4-1c-0.1-0.2-0.3-0.5-0.4-0.7c0-0.1-0.1-0.2-0.2-0.3c-0.1-0.1-0.2-0.2-0.3-0.3
	c-0.1-0.3-0.3-0.6-0.5-0.9c-0.2-0.3-0.4-0.6-0.5-0.9c-0.2-0.4-0.5-0.8-0.9-1.2c-0.5-0.6-1.1-1.2-1.1-1.9c0,0-0.1,0-0.1-0.1
	c0,0,0,0,0,0c0,0,0,0-0.1,0c0,0,0,0-0.1,0c0.1,0.2,0,0.4,0,0.6c-0.1,0.4-0.1,0.7,0.4,0.9l0.1,0l0,0.1c0.1,0.6,0.4,1.2,0.8,1.8
	c0.2,0.4,0.5,0.8,0.7,1.2c0.5,1.2,0.9,2.1,1.4,2.9c0.5,0.8,0.9,1.5,1,2.3c0,0.1,0,0.3,0,0.4c0,0.9,0,1.7,1.1,2.4
	c0.2,0.1,0.1,0.3,0.1,0.4c0,0,0,0.1,0,0.1c0,1,0.3,2,0.5,2.9c0.3,1.2,0.6,2.4,0.5,3.7c0,0.1,0,0.3,0,0.5c0,0.1,0,0.2,0,0.3
	c0,0.3,0,0.5,0.5,0.6l0.1,0l0,0.1c0,0.4,0.2,0.7,0.3,1.1c0.2,0.4,0.4,0.8,0.4,1.2c0,0.6-0.1,1.1-0.2,1.7c-0.1,1.1-0.3,2.2-0.1,3.3
	c0.2,1.2,0.2,2.4,0.3,3.6c0,0.5,0,1.1,0.1,1.6l0,0.1c0,0.1,0,0.1,0,0.2c0,0,0,0,0,0c0,0.1,0,0.2-0.1,0.3c-0.5,0.4-0.4,0.9-0.3,1.3
	c0.1,0.3,0.1,0.5,0.1,0.8c0,0,0.1,0,0.1,0c0,0,0,0,0.1,0c0,0,0,0,0,0c0,0,0,0,0.1,0c-0.1-0.3,0.1-0.6,0.2-0.8
	c0.1-0.1,0.2-0.3,0.2-0.4c0-0.2,0-0.4,0-0.6c0-0.2-0.1-0.5,0-0.7c0-0.2,0.1-0.4,0.2-0.6c0.1-0.2,0.2-0.4,0.2-0.6c0-0.7,0-1.4,0-2
	C127.7,224.7,127.6,223.6,127.9,222.5z M123.9,228c-0.1-0.2-0.2-0.4-0.3-0.4c-0.3-0.1-0.4,0.1-0.3,0.4c0,0.1,0.1,0.3,0.2,0.4
	C123.5,228.2,123.7,228.1,123.9,228z M123.5,219.5c0-0.1-0.1-0.2-0.2-0.4c-0.3,0.4-0.5,0.5-0.5,0.7c0,0.1,0.2,0.2,0.3,0.3
	C123.2,219.8,123.4,219.7,123.5,219.5z M123.2,216.7c0.1-0.4-0.1-0.8-0.5-1.1c-0.1,0-0.2,0-0.3,0c0,0.4-0.1,0.8,0,1.2
	c0.1,0.3,0.3,0.5,0.5,0.7c0,0,0.2,0,0.2-0.1C123.2,217.1,123.2,216.9,123.2,216.7z M120.2,226.3c-0.1,0.1-0.1,0.2-0.1,0.3
	c0,0.2,0.4,0.7,0.6,0.6c0.2-0.1,0.3-0.4,0.6-0.7c-0.2-0.2-0.3-0.4-0.5-0.4C120.6,226,120.4,226.2,120.2,226.3z M107.4,262.6
	C107.4,262.6,107.4,262.7,107.4,262.6C107.4,262.7,107.4,262.7,107.4,262.6C107.4,262.7,107.4,262.7,107.4,262.6
	c0.2-0.2,0.4-0.2,0.6-0.3c0.1,0,0.3-0.1,0.3-0.1c0.1-0.1,0.2-0.2,0.3-0.4c0.1-0.2,0.2-0.3,0.4-0.4c0.1-0.1,0.3-0.2,0.5-0.3
	c0.2-0.1,0.3-0.2,0.4-0.3c0.4-0.4,0.8-0.8,1.1-1.2c0.6-0.7,1.2-1.4,1.9-2c0.9-0.7,1.8-1.4,1.9-2.7l0,0l1.1-1.4
	c0.8-1.1,1.6-2.2,2.4-3.2c0.1-0.1,0.1-0.1,0.2-0.2c0.1-0.1,0.2-0.2,0.2-0.3c0.2-0.9,0.6-1.6,1-2.3c0.1-0.2,0.2-0.3,0.3-0.5
	c0.1-0.1,0.2-0.2,0.3-0.3c0.2-0.2,0.4-0.3,0.4-0.5c-0.1-0.5,0.2-0.7,0.4-0.9c0.1-0.1,0.2-0.2,0.2-0.3c0.1-0.1,0.1-0.2,0.1-0.4
	c0.1-0.3,0.2-0.6,0.5-0.9c0.2-0.2,0.3-0.5,0.4-0.8c0.1-0.2,0.1-0.4,0.2-0.6c0-0.1,0-0.2,0-0.3c0-0.1,0-0.2,0.1-0.3
	c0.1-0.2,0.2-0.5,0.2-0.8c0.1-0.3,0.1-0.6,0.2-0.8c0.2-0.3,0.2-0.8,0.2-1.2c0.1-0.6,0.1-1.3,0.6-1.7c0,0,0,0,0-0.1c0,0,0,0,0,0
	c0,0,0,0,0,0c0,0,0,0,0,0c-0.1,0.2-0.2,0.3-0.3,0.4c-0.2,0.2-0.4,0.3-0.3,0.8l0,0.1l0,0.1c-0.3,0.4-0.4,0.9-0.6,1.4
	c-0.1,0.4-0.2,0.7-0.4,1.1c-0.4,0.9-0.7,1.7-0.9,2.4c-0.2,0.7-0.4,1.4-0.8,1.9c-0.1,0.1-0.2,0.2-0.2,0.3c-0.5,0.5-1,1-0.8,2
	c0,0.2-0.1,0.3-0.2,0.3c0,0,0,0,0,0c-0.5,0.6-1,1.3-1.4,2c-0.5,0.9-1,1.8-1.8,2.4c-0.1,0.1-0.2,0.2-0.2,0.3c0,0.1-0.1,0.1-0.2,0.2
	c-0.2,0.2-0.3,0.3-0.1,0.6l0,0.1l-0.1,0.1c-0.2,0.2-0.3,0.5-0.4,0.8c-0.1,0.3-0.2,0.7-0.5,0.9c-0.3,0.3-0.7,0.6-1,0.9
	c-0.7,0.6-1.4,1.2-1.9,1.9c-0.6,0.8-1.2,1.6-1.9,2.3c-0.3,0.3-0.6,0.6-0.8,1l0,0c0,0-0.1,0.1-0.1,0.1l0,0c0,0-0.1,0.1-0.2,0.1
	c-0.5,0-0.7,0.3-0.9,0.6C107.7,262.3,107.5,262.5,107.4,262.6z M119.7,224.2c-0.1,0.1-0.4,0.1-0.4,0.2c-0.2,0.5-0.5,1-0.4,1.6
	c0,0.1,0.2,0.2,0.3,0.2c0.1,0,0.4,0,0.4-0.1c0.1-0.4,0.2-0.8,0.3-1.2c0-0.2,0-0.3,0-0.4C119.8,224.5,119.7,224.3,119.7,224.2z
	 M116.2,241.1c-0.1,0.3-0.2,0.5-0.4,0.8c0.1,0.3,0.2,0.5,0.3,0.7c0.2-0.1,0.4-0.2,0.5-0.3c0.2-0.3,0.5-0.6,0.6-0.9
	c0-0.6,0-1,0.8-0.9c0.1,0,0.2-0.2,0.3-0.3c0.1-0.3,0.2-0.6,0.3-0.9c0.4-0.6-0.4-0.5-0.4-0.8c-0.2,0.1-0.4,0.1-0.5,0.2
	C117.1,239.4,116.6,240.3,116.2,241.1z M116.1,234.1c-0.2,0-0.6,0-0.7,0.1c-0.3,0.6-0.6,1.3-0.8,2c-0.1,0.3,0,0.7,0.3,0.9
	c0.1,0,0.2,0,0.2,0.1c0.1,0,0.2-0.1,0.2-0.1c0.1-0.3,0.3-0.5,0.3-0.8c0-0.6,0.2-1.2,0.4-1.7C116.2,234.4,116.1,234.2,116.1,234.1z
	 M118.3,204.1c0.2,0.4,0.2,0.9,0.5,1.4c0.2,0.3,0.4,0.5,0.6,0.8c0,0,0.2-0.1,0.2-0.1c0-0.2,0-0.4,0-0.6c0-0.2,0-0.3,0-0.5
	c-0.1-0.4-0.2-0.8-0.3-1.2c-0.1-0.3-0.4-0.4-0.7-0.3C118.1,203.5,118.2,203.9,118.3,204.1z M118.1,211.4c0.4,0.3,0.1,0.7,0.2,1.1
	c0.1,0.4,0.1,0.8,0.3,1.2c0.1,0.2,0.3,0.4,0.4,0.7c0.1-0.2,0.3-0.5,0.3-0.8c0-0.1,0-0.3,0-0.6c-0.3-0.5-0.2-1.3-0.6-1.9
	c-0.1-0.1-0.2-0.2-0.3-0.3c-0.1,0.1-0.1,0.3-0.2,0.4C118.2,211.2,118.1,211.4,118.1,211.4z M115.9,210.5c-0.6,0.2-0.7,0.4-0.7,1.2
	c0,0.3,0.3,0.5,0.6,0.4c0.4-0.2,0.8-0.5,0.7-1C116.5,210.5,116.3,210.3,115.9,210.5z M114.9,209.6c0,0.1,0.2,0.2,0.3,0.4
	c0.1-0.1,0.3-0.3,0.3-0.4c0-0.1-0.2-0.3-0.3-0.4C115.2,209.3,114.9,209.4,114.9,209.6z M113.7,207.6c0,0.3,0.4,0.5,0.6,0.8
	c0.1-0.2,0.2-0.4,0.4-0.6c0.4-0.5,0.2-1,0.3-1.7c-0.1-0.8-0.2-1.6-0.3-2.5c0-0.1-0.1-0.1-0.1-0.2c-0.1-0.1-0.2-0.1-0.3-0.2
	c0,0.1-0.1,0.1-0.1,0.2c0,0.7,0,1.4,0,2.1c0,0.2,0,0.5-0.2,0.6C113.4,206.5,113.6,207.1,113.7,207.6z M110.5,194.6
	c0.1,1,0.5,2,0.7,2.9c0.2,0.9,0.5,1.8,0.6,2.7c0.1,0.8,0.4,1.5,0.9,2.1c0.1,0.1,0.3,0.2,0.4,0.2c0.1,0,0.3-0.2,0.3-0.4
	c0-0.5,0.2-1.1,0-1.5c-0.3-0.5,0.1-0.9,0-1.4c0-0.1-0.2-0.2-0.2-0.3c-0.1-0.4-0.4-0.8-0.3-1.3c0-0.1,0-0.4-0.1-0.4
	c-0.4-0.3-0.4-0.7-0.4-1.1c0-0.5,0-0.8-0.6-1c-0.1,0-0.2-0.2-0.2-0.4c0-0.6,0.1-1.1,0-1.7c-0.1-0.2-0.1-0.8-0.6-0.8
	c-0.4,0-0.6,0.2-0.7,0.6C110.2,193.5,110.4,194,110.5,194.6z M110,201.1c0,0.2,0.3,0.5,0.4,0.5c0.3-0.1,0.6-0.4,1-0.7
	c-0.3-0.2-0.5-0.3-0.8-0.3C110.3,200.5,110.1,200.8,110,201.1z M103.6,188.6c0.6,0.4,0.6,1.1,0.9,1.6c0.3,0.5,0.7,1,1.1,1.5
	c0.1,0.1,0.1,0.2,0.2,0.3c0-0.1,0.1-0.2,0.1-0.3c0-0.2,0-0.4,0-0.5c-0.5-1-1-2.1-1.7-3.1c-0.1-0.1-0.2-0.5-0.4-0.1
	C103.6,188.2,103.5,188.6,103.6,188.6z M103,193.4c-0.4,0.1-0.2,0.4-0.2,0.6c0,0.1,0,0.3,0,0.4c0,0.3,0,0.6,0,0.9
	c0,0.1,0.2,0.2,0.3,0.2c0.2,0,0.4,0,0.5-0.1c0.1-0.5,0.3-0.9,0.3-1.4C103.8,193.5,103.4,193.3,103,193.4z M101.8,184
	c0.1,0.2,0.1,0.5,0.2,0.7c0.2,0.7,0.5,1.4,1.1,1.8c0.1,0.1,0.2,0,0.3,0c0,0,0.1-0.1,0.1-0.2c0-0.2,0-0.3,0-0.5
	c0-0.8-0.5-1.5-0.7-2.3c-0.2-0.7-0.7-0.4-0.9-0.3C101.6,183.4,101.7,183.7,101.8,184z M92.9,49.8c0-0.2,0-0.3,0-0.4
	c0-0.1-0.1-0.3-0.2-0.4c-0.1,0.1-0.3,0.1-0.4,0.2c-0.5,0.5-0.4,1.2-0.4,1.9c0,0.3,0.1,0.1,0.3,0.1C92.9,50.9,92.9,50.3,92.9,49.8z
	 M94,46.6c-0.1-0.2-0.3-0.4-0.3-0.4c-0.2,0.1-0.4,0.2-0.6,0.4c0.2,0.1,0.3,0.3,0.5,0.4C93.7,46.9,93.9,46.7,94,46.6z M94.9,32.5
	c-0.1,0-0.2,0.1-0.3,0.1c-0.3,0.5-0.7,0.9-1,1.4c-1,1.7-1.9,3.5-2.4,5.5c-0.3,1.3-0.8,2.6-1.3,3.9c-0.2,0.4-0.4,0.7-0.5,1.2
	c-0.1,0.4-0.3,0.8-0.5,1.2c-0.2,0.4-0.5,0.8-0.5,1.2c0.1,0.9-0.4,1.8-0.5,2.6c-0.2,1-0.9,1.9-0.8,3c0,0.1-0.1,0.1-0.2,0.2
	c-0.3,0.6-0.6,1.2-0.8,1.9c-0.2,0.5-0.4,1-0.3,1.5c0.2,1.5-0.8,2.7-1.2,4.1c-0.7,0.5-0.5,1.5-1.2,2c-0.1,1.3-1.1,2.2-1.4,3.4
	c-0.2,0.7-0.7,1.4-0.9,2.1c-0.2,0.7-0.7,1.4-0.8,2.1c0,0.8-0.5,1.4-0.7,2.2c-0.2,1.1-0.7,2.2-1.1,3.3s-0.8,2.2-1.2,3.3
	c-0.7,1.8-1.4,3.6-2,5.4c-0.2,0.6-0.6,1.3-0.6,1.9c-0.1,0.8-0.8,1.3-1.2,1.8c-0.5,0.7-0.9,1.3-0.7,2.2c-0.3,0.8,0.3,1.4,0.7,2
	c0.3,0.3,0.6,0.6,0.9,0.9c0.4,0.4,0.4,0.4,1-0.1c0.3-0.2,0.5-0.3,0.5-0.7c0-0.3,0-0.5,0.2-0.8c0.6-0.8,0.4-1.4-0.6-2
	c-0.1,0-0.2-0.2-0.2-0.3c0.4-0.8,0.3-1.7,0.5-2.5c0.2-0.5,0.3-1.1,0.4-1.6c0.1-1,0.8-1.8,1.2-2.6c1-2.1,1.9-4.2,2.7-6.4
	c0.5-1.3,1.1-2.5,1.4-3.8c0.4-1.7,1-3.3,1.8-4.8c0.2-0.5,0.4-1,0.6-1.4c0.2-0.6,0.5-1.1,0.5-1.7c0.1-0.6,0.6-1.1,0.5-1.8
	c0.8-1.2,1-2.6,1.7-3.8c0.3-0.5,0.2-1.2,0.7-1.5c-0.1-0.6,0.4-1.1,0.6-1.6c0.7-1.7,1.2-3.4,1.9-5c0.5-1,0.7-2.1,1.2-3.1
	c0.4-1.1,0.2-2.4,1.1-3.3c0,0,0-0.2,0-0.3c-0.2-0.8,0.6-1.5,0-2.3c-0.1-0.1,0.1-0.3,0.1-0.4c0.2-0.8,0.5-1.6,0.7-2.4
	c0.3-1,0.3-2.2,1.1-3c0.3-0.3,0.6-0.8,0.3-1.2c-0.3-0.6-0.3-1,0.2-1.4C95,32.8,94.9,32.6,94.9,32.5z M85.1,129.2c0.1,0,0.2,0,0.3,0
	c0.4-0.3,0.4-0.5,0-1c-0.1-0.1-0.1-0.1-0.2-0.2c-0.1,0.1-0.1,0.1-0.2,0.2C84.8,128.6,84.8,129,85.1,129.2z M85.3,114.6
	c0.1-0.2,0.3-0.4,0.3-0.6c0-0.2-0.2-0.3-0.4-0.5c-0.1,0.2-0.3,0.4-0.4,0.6C84.9,114.3,85.1,114.4,85.3,114.6z M81,153.5
	c0,0.6,0,1.2,0,1.8c0,0.4,0.2,0.8,0.5,1.1c0.2,0.3,0.6,0.2,1,0.1c0.2,0,0.4-0.4,0.4-0.6c-0.1-0.8,0.3-1.6-0.2-2.4
	c-0.1-0.2,0-0.6,0.1-1c0.3-0.8,0.7-1.6,0.1-2.5c-0.1-0.1,0.1-0.4,0.2-0.7c0.3-0.8,0.6-1.5,0.6-2.4c0-0.3-0.4-0.6-0.7-0.4
	c-0.2,0.2-0.4,0.3-0.5,0.5c-0.4,0.9-0.9,1.8-1.1,2.8C81,151.2,81,152.3,81,153.5C80.9,153.5,81,153.5,81,153.5z M74.6,135.3
	c0.5-0.2,0.9-0.3,1.3,0.1c0.1,0.1,0.4,0.3,0.5,0.2c0.3-0.2,0.6-0.5,0.8-0.7c0-0.1-0.2-0.4-0.4-0.6c-0.1-0.1-0.4-0.2-0.6-0.2
	c-0.3-0.1-0.4-0.6-0.2-0.8c0.2-0.2,0.5-0.3,0.7-0.5c0.2-0.2,0.1-0.5-0.1-0.5c-0.2,0-0.3-0.1-0.5,0c-0.5,0.1-0.5-0.2-0.4-0.5
	c0.2-0.7,0.3-1.4,0.6-2c0.2-0.5,0.2-0.9,0-1.4c-0.1-0.2-0.1-0.6,0-0.7c0.5-0.4,0.4-0.9,0.4-1.4c0-0.1,0.1-0.2,0.2-0.2
	c0.1,0,0.2,0,0.2,0.1c0.1,0.2,0.3,0.4,0.3,0.6c0,0.8,0,1.6,0,2.5c0,0.7,0,1.4,0,2.1c0,0.1,0.3,0.2,0.4,0.2c0.1,0,0.2-0.2,0.3-0.3
	c0.6-1.2,1.2-2.3,1.2-3.7c0-0.9-0.3-1.7-0.4-2.5c-0.1-0.4-0.2-0.9-0.1-1.1c0.4-0.5,0.2-0.9,0.2-1.3c0-1.1,0-2.2,0-3.4
	c0-0.5,0-1,0.3-1.3c0.6-0.7,0.5-1.4,0.5-2.1c-0.1-0.7,0.2-1.5-0.2-2.3c-0.2-0.4-0.2-0.9-0.5-1.2c-0.3-0.4-0.4-0.8-0.6-1.3
	c-0.4-1.1-0.8-2.2-0.8-3.4c0-0.1-0.1-0.4-0.2-0.4c-0.4-0.3-0.3-0.7-0.3-1c0-0.3,0-0.5,0-0.8c0-0.2-0.2-0.6-0.2-0.6
	c0.4-0.3,0-0.4-0.1-0.6c-0.5-1.2-0.7-2.4-1-3.6c-0.2-1-0.5-2-0.8-3c-0.1-0.4-0.3-0.7-0.1-1.2c0-0.1,0.1-0.2,0-0.3
	c-0.5-0.7-1.1-1.4-1.5-2.1c-0.3-0.4-1,0-1-0.7c-0.8-0.4-1.4-1.1-2.2-1.6c-0.6-0.3-1-0.8-1.4-1.3c-0.4-0.4-1.1-0.7-1-1.5
	c0-0.1-0.2-0.2-0.3-0.4c-0.2-0.3-0.5-0.3-0.8-0.2c-0.3,0.1-0.4,0.4-0.4,0.7c0.1,1.1,0.2,2.3,0.3,3.4c0,0,0,0.1,0,0.1
	c0.5,0.6,0.4,1.3,0.3,2c-0.1,0.7,0,1.5,0,2.2c0,0.5-0.1,1,0.4,1.4c0.1,0.1,0.1,0.3,0.1,0.5c0.1,0.4,0.1,0.8,0.2,1.2
	c0.3,0.8,0.3,1.6,0.3,2.5c0,0.7,0,1.4,0,2.1c0,1.1-0.1,2.1,0.3,3.1c0.1,0.3,0.2,0.7,0.3,1.1c0.1,2.7-0.2,5.4,0.3,8.1
	c0.3,1.6-0.3,3.1-0.2,4.7c0,1.7,0,3.4,0,5.1c0,1.9,0,3.8,0,5.7c0,0.2,0,0.5,0.1,0.7c0,0.1,0.2,0.2,0.3,0.3c0.1-0.1,0.1-0.2,0.1-0.3
	c0.1-0.4,0.3-0.8,0.4-1.3c0-0.1,0.2-0.2,0.3-0.2c0,0.1,0.1,0.1,0.1,0.2c0,1,0.2,1.9,0,2.8c-0.2,0.7-0.2,1.3-0.2,2
	c0,0.1,0.1,0.4,0.2,0.4c0.2,0,0.4,0.1,0.6-0.3c0.2-0.6,0.5-1.2,0.5-1.9c0.1-0.8,0.3-1.6,0.2-2.5c0-0.1,0.1-0.2,0.2-0.3
	c0.1-0.1,0.2-0.1,0.3-0.2c0,0.1,0.1,0.2,0.1,0.2c-0.1,0.4-0.2,0.9-0.2,1.3c0,1.4,0,2.8,0,4.1c0,0.1,0,0.3,0,0.4
	c0.1,0.2,0.3,0.3,0.5,0.4c0,0,0.2-0.2,0.3-0.3C72.8,136.5,73.5,135.7,74.6,135.3z M73.7,147.6c-0.1,0-0.2,0-0.3,0.1
	c-0.4,0.4-0.8,0.7-1.1,1.1c-0.4,0.5-0.6,1.2-0.3,1.3c0.5,0.2,0.8-0.2,1-0.5c0.4-0.5,0.6-1,1-1.6C73.9,147.8,73.8,147.7,73.7,147.6z
	 M68.7,139c-0.3,0.1-0.6,0.1-0.9,0.3c-0.1,0.1-0.1,0.4-0.1,0.6c0.1,0.2,0.3,0.3,0.5,0.4c0.3,0,0.8-0.6,0.8-1.1
	C69,139.1,68.8,138.9,68.7,139z M76.2,94.9c0.1,0.1,0.1,0.3,0.1,0.5c0,0.8,0.4,1.6,0.5,2.4c0,0.1,0.2,0.2,0.3,0.2
	c0.1,0,0.4,0,0.4-0.1c0.1-0.3,0.2-0.6,0.3-0.9c0-0.7,0-1.4,0-2.1c0-0.7,0-1.4,0-2.1c0-0.2,0-0.3-0.1-0.5c0-0.1-0.2-0.2-0.3-0.3
	c-0.1,0.1-0.1,0.2-0.2,0.3c-0.2,0.3-0.3,0.6-0.7,0.9C76.1,93.6,75.8,94.2,76.2,94.9z M78.7,84.3c0-0.1,0,0.1,0.1,0.2
	c0.1,0,0.3,0,0.3-0.1c0.2-0.3,0.4-0.6,0.6-0.9c0.2-0.2,0.1-0.3-0.1-0.4c-0.1-0.1-0.4-0.2-0.4-0.2C79,83.3,78.5,83.5,78.7,84.3z
	 M79.9,90.9c0,0.6-0.1,1,0,1.4c0.1,0.3,0.3,0.5,0.7,0.5c0.3,0,0.3-0.1,0.4-0.4c0.3-0.7,0.6-2.4,0.5-3c-0.1-0.2-0.3-0.4-0.5-0.5
	c-0.2-0.1-0.5,0-0.7,0.2C79.9,89.7,79.9,90.4,79.9,90.9z M82.2,97.4c-0.1,0.2-0.2,0.6-0.1,0.7c0.3,0.3,0,0.4,0,0.6
	c-0.1,0.3-0.2,0.6-0.3,0.9c-0.3,0.9-0.7,1.9-0.5,2.9c0,0.1-0.2,0.2-0.2,0.3c0,0.2,0.1,0.3,0.3,0.5c0.2-0.2,0.4-0.3,0.5-0.4
	c0.8-1.4,1-3,1.5-4.5c0.1-0.3,0.1-0.6,0.4-0.9c0.3-0.2,0.2-0.4,0-0.6c-0.1-0.1-0.3-0.1-0.4-0.2c-0.2-0.3-0.4-0.2-0.6,0
	C82.5,97,82.3,97.2,82.2,97.4z M82.3,82.3c0,0.1,0.1,0.1,0.2,0.1c0.1,0,0.3-0.1,0.3-0.1c0-0.2,0.1-0.4,0-0.5
	c-0.1-0.1-0.2-0.2-0.3-0.4c-0.1,0.1-0.1,0.2-0.2,0.2C82.3,82,82.3,82.2,82.3,82.3z M83,86.7c0,0,0,0.3,0.1,0.6
	c0,0.1,0.2,0.2,0.4,0.3c0.1,0,0.2-0.1,0.3-0.3c0.1-0.5,0.2-0.9,0.3-1.4c0.1-0.5-0.5-0.3-0.6-0.5c-0.2,0.1-0.4,0.2-0.5,0.4
	C83,86,83,86.2,83,86.7z M83.4,106.5c0.1-0.1,0.1-0.4,0.2-0.6c-0.1-0.1-0.1-0.3-0.2-0.4c0,0.1,0,0.3-0.1,0.3
	c-0.3,0.2-0.1,0.8-0.7,0.7c-0.1,0,0.2,1,0.3,1c0.1,0,0.2-0.1,0.1-0.1C82.9,107,83.2,106.8,83.4,106.5z M79.2,132.7
	c0-0.4,0-0.8-0.4-1c-0.1,0.3-0.3,0.5-0.4,0.8c-0.1,0.2-0.1,0.3-0.1,0.4c0.2,1.3,0.7,2.3,1.9,2.9c0.3,0.2,0.7,0.5,0.9,0.1
	c0.1-0.3-0.3-0.5-0.6-0.6c-0.5-0.2-1-0.6-1.3-1.2C79.1,133.6,79.2,133.2,79.2,132.7z M81.5,121.7c0-0.2-0.2-0.4-0.3-0.6
	c-0.1,0.2-0.3,0.3-0.4,0.5c-0.2,0.6-0.3,1.2-0.3,1.6c0,0.3,0,0.4,0,0.5c0,0.2-0.1,0.5,0.3,0.5c0.1,0,0.3-0.1,0.4-0.3
	C81.4,123.2,81.6,122.5,81.5,121.7z M81.1,107c0.2,0,0.5-0.3,0.4-0.6c0-0.2-0.1-0.3-0.3-0.5c-0.2,0.2-0.4,0.3-0.5,0.4
	C80.6,106.6,80.8,107,81.1,107z M82,94.6c0-0.3-0.3-0.5-0.5-0.8c-0.3,0.2-0.6,0.4-0.8,0.7c-0.1,0.1,0,0.4,0,0.6c0,0.3,0,0.5,0,0.8
	c0.1,0.4,0.5,0.5,0.8,0.3C82.2,95.8,82,95.2,82,94.6z M81.6,77.8c-0.3-0.2-0.5-0.4-0.7-0.5c-0.1,0.1-0.2,0.2-0.2,0.4
	c-0.1,0.3,0.1,0.5,0.4,0.6C81.3,78.3,81.4,78,81.6,77.8z M75.5,145.2c0,0.3,0,0.5,0.4,0.5c0.6,0,1.3,0,1.9,0c0.6,0,1.2,0,1.8,0
	c0.2,0,0.5-0.1,0.6-0.2c0.5-0.7,0.9-1.3,1-2.2c0-0.2,0-0.4-0.1-0.4c-0.2-0.1-0.4,0-0.6,0c-0.2,0.1-0.4,0.4-0.6,0.5
	c-0.4,0.3-0.7,0.8-1.2,1c-0.3,0.2-0.4,0-0.5-0.1c-0.1-0.1-0.2-0.3-0.1-0.5c0.2-0.8,0.4-1.6,0.8-2.4c0.2-0.4,0.2-0.8,0.2-1.2
	c0-0.1-0.1-0.2-0.1-0.3c-0.1,0.1-0.3,0.1-0.4,0.2c-0.4,0.4-0.8,0.8-1,1.4c-0.4,0.9-0.9,1.8-1.6,2.5
	C75.7,144.3,75.5,144.7,75.5,145.2z M84.7,137.7c-0.1-0.5-0.2-1-0.4-1.4c-0.1-0.3-0.4-0.3-0.6,0c-0.1,0.1-0.2,0.3-0.2,0.4
	c-0.1,0.6-0.4,1.1-1,1.5c-0.5,0.3-0.6,0.8-0.5,1.2c0.2,0.6,0.3,0.6,1,0.6c0.5,0,1,0,1-0.6C84.7,138.9,84.6,138.3,84.7,137.7z
	 M84.7,118.5c-0.2-0.2-0.4-0.4-0.6-0.5c0,0-0.2,0.1-0.2,0.2c-0.1,0.3,0.2,0.9,0.4,0.8C84.4,118.9,84.5,118.7,84.7,118.5z M70.9,78.4
	c0,0.2,0.1,0.4,0,0.5c-0.4,0.4-0.2,1-0.2,1.5c-0.1,0.5-0.2,1-0.3,1.4c0,0.2,0,0.2,0,0.3c0,0.3,0,0.7,0.3,0.8
	c0.4,0.1,0.2-0.4,0.4-0.5c0.4-0.3,0.4-0.8,0.6-1.2c0.3-0.6,0.1-1.2,0.3-1.7c0.3-0.7,0.5-1.5,0.7-2.3c0.2-0.8,0.7-1.5,0.6-2.4
	c0.9-1.4,0.9-3.2,2.1-4.5c0.3-0.3,0.3-0.9,0.5-1.3c0.6-1.2,0.9-2.5,1.4-3.7c0.4-1.1,1-2.2,1.4-3.3c0.4-1.4,1.1-2.7,1.7-4
	c0-0.1,0.1-0.1,0.1-0.2c0,0.1,0.1,0.1,0.1,0.2c0,0.6,0,1.2-0.2,1.7c-0.4,0.8-0.7,1.8-1.1,2.7c-0.4,1.1-0.4,2.2-1,3.2
	c0.1,0.6-0.5,0.7-0.6,1.2c-0.3,1.1-0.9,2.1-1.2,3.1c-0.1,0.4-0.1,0.8-0.3,1.2c-0.2,0.3-0.2,0.6-0.2,0.9c-0.1,0.7-0.1,1.4-0.4,2
	c-0.5,1-0.9,2-1,3.2c0,0.8-0.5,1.7-0.8,2.5c-0.3,0.9-0.6,1.7-1,2.6c-0.3,0.7-0.9,1.3-1.2,2c-0.2,0.5-0.6,0.9-1.1,1.2
	c-0.7,0.4-0.9,1.2-1.3,1.7c-0.2,0.3-0.1,0.8,0.3,1.1c0.3,0.2,0.7,0.5,1,0.7c0.6,0.5,0.7,0.5,1.2-0.1c0.3-0.3,0.8-0.5,0.8-1.1
	c0-0.8,0.2-1.7,0.3-2.5c0-0.2,0.1-0.3,0.2-0.4c0.8-1.7,1.3-3.5,1.9-5.3c0.3-0.8,0.4-1.6,0.7-2.4c0.4-1.1,0.9-2.2,1.3-3.4
	c0.3-0.8,0.5-1.7,0.8-2.5c0.4-1.3,1-2.6,1.5-3.9c0.1-0.3,0.1-0.6,0.3-0.8c0.2-0.3,0.3-0.5,0.4-0.9c0.7-1.9,1.5-3.8,2.3-5.6
	c0.7-1.5,1.3-3.1,1.8-4.7c0.3-0.8,0.5-1.6,0.8-2.4c0.2-0.8,0.8-1.5,0.8-2.4c1-1.9,1.6-3.9,2.6-5.8c0.3-0.7,0.6-1.4,0.8-2.1
	c0.3-0.9,0.5-1.8,0.7-2.7c0.1-0.6,0.6-1,0.6-1.6c0-0.4,0.2-0.8,0.4-1.1c0.1-0.4,0.2-0.8,0.4-1.1c0.3-1,0.7-1.9,1.1-2.9
	c0.9-2.1,1.9-4.1,2.7-6.1c0.5-1.2,0.9-2.5,1.4-3.7c0.3-0.9,0.6-1.8,0.9-2.7c0.5-1.2,0.8-2.4,1.2-3.7c0.3-1,0.3-2,0.7-2.9
	c0.2-0.3,0.1-0.8,0-1.1c0-0.2-0.2-0.4-0.3-0.5c-0.1-0.1-0.4,0.1-0.5,0.2c-0.4,0.4-0.8,0.9-1.3,1.3c-1.2,0.7-1.9,1.8-2.9,2.7
	c-0.5,0.5-1.2,1.2-1.3,1.9c-0.2,0.9-0.8,1.4-1.3,2c-0.1,0.1-0.3,0.4-0.3,0.5c0.1,0.6-0.3,1-0.5,1.5c-0.4,1-1.2,1.7-1.4,2.8
	c-0.6,0.4-0.5,1.2-0.9,1.7c-0.4,0.5-0.4,1.2-0.8,1.8c-0.5,0.9-0.9,2-1.5,2.9c-0.3,0.5-0.7,1-0.8,1.5c-0.2,0.9-0.8,1.6-1.1,2.5
	c-0.3,0.9-0.8,1.7-1.2,2.5c-0.3,0.6-0.8,1.2-0.8,1.7c0,0.9-0.4,1.5-0.6,2.2c-0.4,1.2-0.8,2.3-1.5,3.4c-0.5,0.7-0.8,1.5-1,2.3
	c-0.2,0.7-0.5,1.3-0.7,1.9c-0.4,1.1-0.7,2.1-0.9,3.2c-0.2,0.7-0.2,1.4-0.6,2.1c-0.3,0.5-0.7,0.9-0.6,1.6c0.1,0.8-0.3,1.5-0.7,2.2
	c-0.5,1-1,1.9-0.9,3c0,0.1-0.1,0.3-0.1,0.5c-0.1,1-0.6,1.9-0.6,2.8c0,0.6-0.3,1.1-0.3,1.7c-0.7,1.1-0.4,2.6-1,3.7
	c0.1,1.2-0.4,2.3-0.5,3.4c0,0.3-0.2,0.6-0.2,0.9c-0.1,0.3,0,0.7-0.1,1C71.1,76.7,70.9,77.5,70.9,78.4z M66.2,75.1c0,0.5,0,1,0,1.4
	c0,1,0,1.9,0,2.9c0,0.2,0,0.5,0.1,0.7c0.2,0.8,0.5,1.5,0.4,2.3c-0.1,0.5,0.2,0.8,0.4,1.1c0.1,0.3,0.4,0.3,0.7,0.2
	c0.2-0.1,0.4-0.3,0.5-0.5c0.1-0.3,0-0.7-0.1-1c0-0.2-0.2-0.3-0.1-0.4c0.4-1.2,0.7-2.5,0.8-3.8c0-0.6,0.1-1.3,0.3-1.8
	c0.2-0.5,0-1,0.2-1.5c0.3-0.5,0.2-1.1,0.2-1.6c0-0.3,0.1-0.6,0.2-0.9c0.2-0.7,0.2-1.4,0.3-2.1c0-0.2,0-0.3,0.1-0.5
	c0.4-0.9,0.7-1.8,0.7-2.8c0-0.2,0.3-0.3,0-0.5c-0.2-0.1-0.3-0.2-0.5-0.1c-1.1,0.6-2,1.3-2.6,2.4c-0.2,0.3-0.4,0.6-0.6,0.9
	c-0.4,0.9-0.4,1.9-0.7,2.8C66.1,73.2,66.2,74.1,66.2,75.1z M62.9,119.1c0.1-0.5-0.5-0.8-0.5-1.2c-0.2-1.2-1.1-2-1.7-3.1
	c-0.2-0.3-0.5-0.8-1.1-0.8c0,0.5-0.2,1-0.1,1.4c0.4,1,0.4,2.2,0.8,3.2c0.3,0.9,0.4,1.9,0.8,2.8c0.3,0.7,0.2,1.4,0.7,2
	c0.1,0.1,0.1,0.3,0.1,0.5c0.1,0.9-0.1,1.8,0.2,2.6c0.3,0.9-0.1,1.8,0.3,2.7c-0.1,2,0.5,4,0.3,6c0,0.3-0.1,0.7,0,0.9
	c0.5,0.5,0.1,1.2,0.4,1.8c0.3,0.6,0.1,1.3,0.2,2c0,0,0,0,0,0c0,0.4,0,0.9,0,1.3c0.1,0.5,0.1,1,0.3,1.4c0.1,0.4,0.5,0.5,0.8,0.2
	c0.6-0.6,1.2-1.1,1.7-1.8c0.4-0.6,1.1-1.1,0.6-2c-0.1-0.3-0.1-0.7,0-1c0.4-1.5,0.4-1.4-0.3-3.4c-0.1-0.4-0.1-1,0.1-1.4
	c0.1-0.2,0.2-0.5,0.1-0.7c0-1.1,0.2-2.3-0.2-3.4c-0.2-0.5-0.2-1-0.3-1.6c0-0.6,0-1.2,0-1.8c0-0.2,0-0.3-0.1-0.5c-0.5-1-1-2-1.3-3.1
	C63.7,121.4,63.7,120,62.9,119.1z M55.8,125.8c-0.1,0.5-0.2,1-0.3,1.5c0.1,0.7,0.1,1.4,0.4,2.1c0.3,0.6,0.4,1.3,1,1.8
	c0.1,0.1,0.2,0.1,0.3,0.1c0.1,0,0.1-0.2,0.2-0.3c0.1-0.7,0-1.4-0.3-1.9c-0.3-0.6-0.5-1.1-0.4-1.8c0.1-0.6-0.1-1.2,0.2-1.9
	c0.3-0.5,0.1-1.2-0.4-1.7c-0.1-0.1-0.4-0.2-0.5-0.2c-0.2,0.1-0.5,0.3-0.3,0.6C56.1,124.6,55.9,125.3,55.8,125.8z M56.2,145
	c0,0,0.1,0,0.1,0c0,0.2,0,0.4,0,0.6c0,0.1,0.1,0.1,0.1,0.2c0.1,0,0.1-0.1,0.2-0.1c0.7-0.7,1.1-1.5,1-2.5c0-0.2,0-0.4-0.3-0.4
	c-0.2,0-0.4-0.1-0.5,0.2C56.7,143.7,56.4,144.4,56.2,145z M57.7,140.9c0.4,0.3,1,0.3,1.5,0.4c0.1,0,0.3-0.2,0.3-0.3
	c0.1-0.4-0.1-0.7-0.4-1c-0.4-0.4-0.5-0.9-0.8-1.4c-0.3-0.5-0.5-1-0.6-1.5c-0.1-0.3-0.3-0.2-0.5-0.2c-0.1,0-0.2,0.2-0.2,0.3
	c0,0.3,0,0.7,0,1c0,0.4,0,0.9,0,1.3C56.9,140.1,57.2,140.6,57.7,140.9z M60.7,83c0,0.5,0.2,0.9,0.4,1.2c0,0.1,0.2,0.2,0.3,0.2
	c0.1,0,0.2-0.2,0.3-0.3c0.1-0.6,0.3-1.1,0.3-1.7c0-2.1,0.2-4.2-0.5-6.3c-0.1-0.3-0.1-0.8-0.5-0.7c-0.4,0-0.4,0.5-0.3,0.9
	c0,0.2,0.1,0.4,0.1,0.6c0,0.4,0.2,0.9,0.1,1.2c-0.2,0.4-0.2,0.7-0.2,1.1c0,0.6,0,1.1,0,1.7C60.8,81.7,60.8,82.4,60.7,83z M60.7,86.1
	c0.1,0.1,0.2,0.4,0.3,0.6c0,0.1,0.1,0.1,0.2,0.1c0.2-0.3,0.6-0.4,0.6-0.9c0-0.5-0.4-0.3-0.6-0.5c-0.2,0.1-0.3,0.1-0.4,0.3
	C60.7,85.7,60.8,85.9,60.7,86.1z M55.3,88.2c-0.1,1.2,0.2,2.3,0.5,3.4c0.1,0.4,0.2,0.9,0.3,1.3c0.1,0.6,0,1.3,0.1,1.9
	c0.1,0.6,0.3,1.1,0.4,1.6c0.1,0.6-0.1,1.3,0.5,1.7c-0.1,0.6,0.2,1,0.2,1.6c0,0.3-0.1,0.6-0.1,0.8c-0.2,0.5-0.2,0.9,0.2,1.3
	c0.2,0.2,0.4,0.5,0.4,0.8c0.1,0.9,0.2,1.7,0.3,2.6c0,0.2,0.1,0.5,0.1,0.7c0.1,1,0.7,2,0.6,3.1c0,0.1,0,0.3,0,0.4
	c0.2,0.2,0.4,0.4,0.7,0.4c0.3,0,0.3-0.3,0.3-0.5c0.1-0.4-0.2-0.9,0.2-1.2c-0.2-0.4-0.4-0.8-0.5-1.2c-0.1-0.3,0-0.7,0-1
	c0-1.1,0.1-2.3-0.3-3.4c-0.1-0.3-0.3-0.7-0.2-1.1c0-0.9-0.3-1.7-0.4-2.6c0-0.1,0.1-0.2,0.1-0.4c0.1-0.1,0.4-0.2,0.1-0.5
	c-0.5-0.4-0.5-1-0.6-1.6c-0.1-0.2,0-0.6-0.2-0.7c-0.4-0.3-0.4-0.7-0.4-1.2c0.1-2.4-0.3-4.8,0.2-7.2c0.1-0.6-0.1-1.3-0.2-2
	c-0.2-0.8,0-1.7-0.1-2.6c0-0.8-0.2-1.7-0.2-2.5c0-1.4,0-2.8,0-4.3c0-1.7,0-3.5,0-5.2c0-0.4,0.1-0.4,0.5-0.3c0.2,0.1,0.4,0.2,0.5,0.3
	c0.4,0.2,0.8,0,0.8-0.3c0-0.3,0.1-0.7,0-0.9c-0.4-0.4-0.2-0.8-0.2-1.2c0-1.4,0-2.8,0-4.3c0-0.3-0.1-0.6,0-0.8
	c0.5-0.5,0.1-1.2,0.2-1.7c0,0-0.2-0.1-0.2-0.1c-0.2,0.2-0.5,0.4-0.5,0.7c-0.1,0.5,0,1-0.3,1.5c-0.1,0.2-0.1,0.6-0.1,0.9
	c-0.3-0.2-0.1-0.6-0.2-0.9c0-0.4,0-0.9,0-1.3c0-0.6,0-1.1,0.3-1.6c0.6-1,0.5-2.2,0.5-3.3c0-0.6-0.1-1.3,0-1.8
	c0.1-0.4,0.2-0.8,0.2-1.2c0.1-0.4,0.2-0.8,0.2-1.2c0-0.4,0.1-0.6,0.4-0.9c0.7-0.7,0.9-1.5,0.5-2.4c-0.1-0.4-0.1-0.7,0-1.1
	c0.3-1,0.5-2.1,0.6-3.1c0.1-1.1,0.5-2.1,0.3-3.3c0-0.1,0-0.2,0-0.2c0.3-0.8,0.4-1.6,0.4-2.4c0-0.8,0.6-1.5,0.6-2.4
	c0-0.2,0.3-0.5,0.5-0.7c0.4-0.6,0.6-0.8,1.2-0.5c0.6,0.3,0.6-0.1,0.6-0.4c0.1-0.7,0-1.5,0-2.2c0-0.4-0.2-0.5-0.5-0.6
	c-0.3-0.1-0.5,0-0.7,0.3c-0.5,1.1-1.2,2.2-1.7,3.3c-0.1,0.2,0,0.4-0.1,0.5c-0.7,0.7-0.9,1.6-1.4,2.4c-0.6,1.1-0.9,2.4-1.4,3.6
	c-0.3,0.7-0.6,1.5-0.8,2.3c-0.1,0.8-0.5,1.5-0.6,2.3c-0.1,0.9-0.4,1.9-0.7,2.8c-0.2,0.6-0.1,1.3-0.3,1.8c-0.1,0.3-0.1,0.6-0.2,1
	c-0.1,0.3-0.2,0.6-0.2,0.9c0,0.6,0,1.1-0.2,1.7c-0.2,0.5,0.1,1.2-0.3,1.7c0.2,1.2-0.3,2.3-0.3,3.4c0,0.9,0.2,1.8-0.2,2.6
	c0,1.2-0.2,2.4-0.2,3.7c-0.1,3.7,0,7.3,0,11c0,0.3,0.1,0.6,0.2,1c0.2,0.7,0.5,1.4,0.3,2.2c-0.1,0.4-0.3,0.7-0.3,1.1c0,0.5,0,1,0,1.4
	c0,0.5-0.2,1,0.2,1.5c0.4,0.5-0.3,0.8-0.2,1.3c0,0.2,0.1,0.3,0.1,0.5C55.2,87.8,55.3,88,55.3,88.2z M58.4,86.9
	c0,0.5,0.2,0.8,0.6,0.8c0.4,0,0.7-0.3,0.7-0.7c0-0.6-0.2-0.9-0.7-0.8C58.6,86.1,58.4,86.4,58.4,86.9z M58.8,81.1
	c0.1,0.1,0.3-0.1,0.5-0.1c0.1,0,0.1-0.1,0.2-0.2c-0.2-0.1-0.3-0.3-0.5-0.4c-0.1-0.1-0.2-0.1-0.3-0.1c-0.1,0.1-0.3,0.3-0.3,0.4
	C58.5,80.8,58.6,81,58.8,81.1z M47.5,169.6c-1.1,1.1-1.2,2.7-2.5,3.6c0,0,0,0.1-0.1,0.1c-0.6,1-1.2,2.1-2.1,2.9
	c-0.1,0.1-0.3,0.2,0,0.4c0.2,0.1,0.4,0.2,0.5,0.1c0.1,0,0.3-0.2,0.4-0.3c0.8-1,1.7-1.8,2.4-2.9c0.6-0.2,0.8-0.9,1.3-1.3
	c0.4-0.4,0.8-0.9,1.2-1.3c0.5-0.5,0.6-1.1,0.9-1.6c0.6-0.7,1.1-1.5,1.5-2.4c1.1-2.1,2.3-4.2,3-6.5c0.3-0.9,0.8-1.7,0.6-2.7
	c-0.1-0.6,0-1.2,0.5-1.8c0.2-0.2,0.2-0.6,0.3-0.9c0-0.1,0-0.2-0.1-0.2c-0.1,0-0.2,0-0.2,0.1c0,0.7-0.8,0.9-1.1,1.5
	c-0.8,1.4-1.8,2.7-2.7,4.1c-0.7,1.2-1.5,2.3-2.1,3.5c-0.1,0.3-0.1,0.6-0.2,0.8c0,0.1,0,0.2,0.1,0.2c0.1,0,0.1,0,0.2-0.1
	c0.5-0.5,1.1-1,1.3-1.8c0.1-0.5,0.4-0.9,0.7-1.2c0.1-0.1,0.4-0.2,0.6-0.2c0.4,0,0.2,0.3,0.3,0.5c0,0.1,0,0.3,0,0.7
	c0,0.1,0,0.5-0.2,0.7c-1,1.4-1.8,2.9-3.1,4.2c-0.3,0.3-0.4,0.6-0.6,0.9C48.1,168.9,47.8,169.3,47.5,169.6z M42.4,177.6
	c-0.4,0-1.2,0.6-1.3,1c0,0.1,0.1,0.3,0.2,0.4c0,0,0.2,0.1,0.2,0.1c0.4-0.4,0.8-0.8,1.2-1.3C42.5,177.6,42.4,177.6,42.4,177.6z
	 M45.3,164.7c0.1,0.1,0.3,0.1,0.3,0.1c0.6-0.4,1.1-0.7,1.7-1.1c0.1,0,0-0.2,0-0.5c-0.1,0-0.3-0.2-0.4-0.1c-0.7,0.3-1.1,0.8-1.6,1.3
	C45.2,164.5,45.2,164.7,45.3,164.7z M40,175c0.2,0.1,0.4,0.2,0.5,0.1c0.8-0.4,1.6-0.9,2.3-1.5c1.8-1.7,3.1-3.7,4.4-5.7
	c0.2-0.3,0.2-0.7,0.4-1.1c-0.1,0-0.2-0.1-0.2-0.1c-0.3,0.2-0.7,0.4-1,0.7c-1.7,1.7-3.3,3.5-4.9,5.2c-0.3,0.3-0.7,0.7-1,1
	c-0.2,0.2-0.4,0.5-0.6,0.8C39.7,174.7,39.8,174.9,40,175z M28.2,180.1c0.2,0,0.3,0.1,0.5,0c0.2,0,0.4-0.1,0.5-0.3
	c1.2-0.9,2.4-1.8,3.4-2.9c0.1-0.1,0.1-0.1,0.2-0.4c0,0-0.2-0.1-0.3-0.1c-0.2,0-0.5,0.1-0.7,0.2c-0.3,0.2-0.5,0.6-0.7,0.7
	c-1.1,0.6-1.9,1.4-2.8,2.3C28.3,179.8,28.3,180,28.2,180.1z M26.4,183.5c-0.1,0.1-0.1,0.3-0.1,0.4c0,0.1,0.2,0.1,0.4,0.1
	c0.3-0.1,0.7-0.1,1-0.3c0.6-0.6,1.1-1.3,1.7-2c0,0-0.1-0.3-0.2-0.3c-0.1,0-0.4,0-0.5,0.1C27.9,182.2,27.2,182.8,26.4,183.5z
	 M24.8,183.2c0.3,0.2,0.3-0.1,0.4-0.3c0.1-0.3,0.5-0.5,0.7-0.7c0.2-0.2,0.3-0.5,0.4-0.7c-0.1-0.2-0.1-0.5-0.2-0.5
	c-0.1,0-0.3,0.1-0.4,0.2c-0.5,0.4-0.6,1-1,1.5C24.7,182.7,24.7,183.1,24.8,183.2z M17,189.1c0,0.2,0,0.3,0,0.5c0,0.3,0,0.6,0,0.9
	c0,0.1,0.1,0.3,0.2,0.3c0.1,0,0.2-0.1,0.3-0.1c0.5-0.2,0.5-0.7,1-1c0.7-0.4,1-1.4,1.8-1.8c0.1,0,0-0.3,0.1-0.3
	c0.2-0.2,0.3-0.4,0.1-0.6c-0.2-0.3-0.5-0.3-0.8-0.2c-0.3,0.1-0.6,0.4-0.9,0.6c-0.4,0.3-0.7,0.7-1.2,0.9
	C17.1,188.3,16.9,188.6,17,189.1z M16.3,196.4c0.5,0.3,0.2-0.5,0.6-0.6c0.1,0,0.3-0.2,0.3-0.3c-0.1-0.6,0.5-0.9,0.7-1.4
	c0.2-0.5,0.7-0.8,1-1.3c0.4-0.7,1-1.1,1.5-1.7c0.5-0.6,0.8-1.4,1.7-1.4c0.1,0,0.3-0.2,0.3-0.4c0-0.3,0.3-0.3,0.4-0.5
	c0.4-0.4,0.8-0.9,1.2-1.3c0.1-0.2,0.3-0.4,0.4-0.4c0.5-0.1,0.7-0.6,1.1-0.9c0.2-0.2,0.3-0.5,0.3-0.5c0-0.9-0.3-1.2-0.9-0.9
	c-0.1,0.1-0.3,0.2-0.4,0.2c-0.8,0.6-1.4,1.4-2.4,1.8c-0.1,0-0.1,0.1-0.2,0.2c-0.3,0.7-0.9,1.2-1.1,1.9c-0.1,0.3-0.3,0.5-0.5,0.7
	c-1.3,1.2-2.3,2.6-3.3,4.1c-0.4,0.6-0.6,1.2-0.9,1.8C16.1,195.8,16.2,196.3,16.3,196.4z M14.7,205.3c-0.4,0.8-0.6,1.7-0.5,2.6
	c0,0.1,0.1,0.1,0.1,0.2c0.1,0,0.1-0.1,0.2-0.2c0.4-0.8,0.8-1.6,1-2.4c0.1-0.3,0.2-0.7,0.3-0.8c0-0.4,0-0.5,0-0.7
	c0-0.1-0.1-0.2-0.1-0.3c-0.1,0.1-0.2,0.2-0.3,0.2C14.8,204.3,14.9,204.8,14.7,205.3z M10.2,206.1c0-0.1,0-0.2-0.1-0.2
	c-0.1,0-0.3,0-0.3,0c-0.2,0.2-0.5,0.4-0.6,0.7c-0.1,0.2,0.1,0.6,0.1,0.8c0.2-0.1,0.4-0.2,0.6-0.4c0.2-0.2,0.2-0.4,0.3-0.5
	C10.2,206.2,10.2,206.1,10.2,206.1z M10.3,214.1c0.1,1.3,0.1,2.5,0.2,3.8c0,0.2,0.1,0.4,0.3,0.5c0.1,0.1,0.2,0.2,0.3,0.3
	c0.1-0.1,0.2-0.2,0.2-0.4c0-0.5-0.1-1,0.3-1.4c0.3-0.3,0.3-0.8,0.3-1.2c0-1-0.1-1.9,0.2-2.9c0.3-0.7,0.5-1.4,0.5-2.1
	c0.1-1.1,0.7-2.1,0.5-3.3c0.5-1.2,0.6-2.6,1.2-3.8c0-0.1,0-0.2,0-0.3c-0.2-0.1-0.8,0.1-0.9,0.3c-1.6,2.8-1.8,4.9-2.3,7.3
	c-0.1,0.5-0.2,1-0.5,1.5C10.3,213.1,10.2,213.6,10.3,214.1z M11.4,228.9c-0.2,0.2-0.4,0.4-0.6,0.6c0.2,0.1,0.3,0.3,0.5,0.4
	c0.4,0.1,0.3-0.3,0.3-0.6C11.5,229.2,11.4,229,11.4,228.9z M10.5,223.9c0.1,0.1,0.2,0.2,0.3,0.2c0.3,0.1,0.5,0,0.4-0.5
	c0,0-0.1-0.1-0.2-0.2C10.9,223.6,10.7,223.8,10.5,223.9z M17.5,249.2c-0.1-0.2-0.1-0.4-0.2-0.7c-0.5-1.1-0.6-2.2-1.3-3.2
	c0-0.8-0.6-1.4-0.9-2.1c-0.2-0.8-0.6-1.5-0.9-2.2c-0.7-1.5-1.4-3-2-4.6c-0.1-0.4-0.3-0.7-0.5-1.1c-0.2-0.4-0.6-0.3-0.8,0.1
	c-0.1,0.2-0.1,0.4-0.1,0.6c0.2,0.6,0.6,1.2,0.7,1.9c0.1,0.7,0.5,1.2,0.8,1.7c0.3,0.6,0.6,1.2,0.8,1.9c0.2,0.6,0.5,1.3,0.9,1.8
	c0.6,1,0.8,2.2,1.7,3.1c0.2,1.1,1,2,1.6,3c0,0.1,0.1,0.1,0.2,0.2C17.4,249.4,17.5,249.4,17.5,249.2z M40,266.4
	c-0.6-0.9-1.9-2.9-5.3-7.5c-0.6-0.7-1.1-1.4-1.6-2.2c-0.3-0.5-0.7-0.9-1.1-1.4c-0.3-0.3-0.6-0.7-0.9-0.9c-0.2-0.3-0.4-0.7-0.6-1
	c-1.2-1.7-2.6-3.5-4.1-5.6c0,0.2,0,0.5,0.1,0.7c0.3,0.7,0.6,1.5,1,2.2c0.5,0.7,0.8,1.6,1.2,2.3c0.9,1.6,1.9,3.2,2.8,4.8
	c1,1.8,2.3,3.3,3.6,4.8c1.1,1.2,2.4,2.3,3.6,3.4c0.1,0.1,0.3,0.2,0.5,0.3C39.6,266.3,39.8,266.4,40,266.4z M29.4,251.4
	c-0.2-0.4-0.4-0.7-0.6-1.1c-0.4-0.9-1.1-1.7-1.7-2.5c-0.1-0.1-0.3-0.2-0.4-0.2C26.7,247.5,26.6,247.6,29.4,251.4z M40,266.5
	c-0.1,0.1,0,0.2,0,0.3c0,0.2,0,0.5,0.3,0.4C40.4,267.2,40.4,267.1,40,266.5z M50.6,266.5c0-0.2-0.5-0.6-0.7-0.6
	c-0.2,0-0.4-0.1-0.5,0.2c-0.1,0.3,0.3,0.6,1,0.6C50.4,266.7,50.6,266.6,50.6,266.5z M64.6,290.1c-1.4,0.7-2.7,1.6-3.7,2.7
	c-0.1,0.1-0.1,0.3-0.1,0.4c0,0.1,0.2,0.1,0.4,0.2c0.4-0.2,1-0.2,1.4-0.5c0.8-0.6,1.4-1.4,2.1-2.1c0.1-0.1,0.2-0.4,0.2-0.6
	C64.9,290.1,64.9,290,64.6,290.1z M66.3,287.8C66.3,287.8,66.2,287.8,66.3,287.8c-0.1-0.3-0.1-0.6-0.1-0.9c0-0.1-0.1-0.1-0.1-0.2
	c0,0.1-0.1,0.1-0.1,0.2c-0.1,0.5-0.8,0.7-0.5,1.3c0,0.1-0.2,0.3-0.2,0.4c-0.4,0.6-0.4,0.7,0.3,1.1c0.3,0.2,0.4,0.2,0.5-0.2
	C66,288.9,66.2,288.3,66.3,287.8z M67.6,289c-0.3-0.4-0.7-0.3-1,0.2c-0.1,0.2-0.2,0.5-0.2,0.7c0.1,0.2,0.4,0.4,0.6,0.6c0,0,0,0,0,0
	C67.5,290.3,67.9,289.3,67.6,289z M72.7,284.8c-0.3-0.1-0.6,0.1-0.7,0.4c-0.1,0.1,0,0.3-0.1,0.6c0,0.1,0.1,0.3,0.2,0.4
	c0.2,0,0.5,0,0.6-0.1c0.2-0.1,0.3-0.4,0.3-0.6C72.9,285.2,73.1,284.9,72.7,284.8z M79.3,286.6c-0.3-0.2-0.5-0.5-0.7-0.5
	c-0.2,0-0.4,0.3-0.5,0.4c0.2,0.2,0.3,0.5,0.6,0.5C78.8,287.2,79,286.9,79.3,286.6z M101.1,263.5c-0.5,0.2-0.8,0.6-1.1,1
	c-0.1,0.1-0.1,0.4,0,0.6c0,0.1,0.4,0.1,0.4,0.1c0.3-0.2,0.7-0.5,0.9-0.8c0.1-0.1,0.1-0.4,0.1-0.4
	C101.5,263.4,101.5,263.3,101.1,263.5z M102.8,253.7c0,0.1,0.2,0.2,0.4,0.5c0.2-0.3,0.5-0.5,0.6-0.8c0-0.1-0.3-0.4-0.5-0.4
	C102.9,253,102.7,253.3,102.8,253.7z M105.1,257c-0.1-0.1-0.2-0.2-0.3-0.3c-0.1,0-0.2,0.1-0.4,0.1c-0.1,0-0.1,0.1-0.2,0.2
	c-0.6,0.7-0.9,1.6-1.5,2.3c0,0,0.1,0.3,0.2,0.3c0.3,0.1,0.6-0.1,0.8-0.3c0.4-0.5,0.7-1.1,1.1-1.6C104.9,257.6,105,257.3,105.1,257z
	 M105.3,255.5c-0.1-0.5-0.4-0.9-0.6-0.7c-0.2,0.1-0.4,0.3-0.4,0.5c-0.1,0.2,0.3,0.5,0.7,0.5C105.2,255.8,105.3,255.6,105.3,255.5z
	 M105.6,249.5c1.3-1.4,2.3-3.1,3.1-4.8c0.2-0.4,0.4-0.7,0.6-1c0.3-0.6,0.6-1.3,1.2-1.7c0-0.8,0.5-1.6,0.5-2.4c0-1.6,0.5-3.1,0.3-4.7
	c0-0.2,0-0.4,0-0.5c0.1-0.3,0.2-0.7,0.4-0.8c0.3-0.1,0.6,0.2,0.6,0.6c0,0.1,0.2,0.2,0.2,0.3c-0.1,0.4,0.1,0.8,0.4,0.8
	c0.2,0,0.5-0.4,0.6-0.7c0.2-0.3,0.5-0.7,0.5-1.1c0.2-1.3,0.7-2.6,0.5-3.9c0-0.2,0-0.4,0.1-0.6c0.3-0.9,0.4-1.7,0.5-2.7
	c0.1-2-0.2-4,0.2-6c0.1-0.5,0.3-1,0.3-1.6c0-0.1,0.1-0.1,0.1-0.2c0,0.1,0.1,0.1,0.1,0.2c0,1.3,0,2.6,0,3.9c0,0.4-0.1,0.7-0.2,1.1
	c-0.1,0.4,0.1,0.9,0.1,1.3c0.1,0.9,0.5,1.8-0.3,2.6c-0.2,0.2-0.1,0.7-0.1,1.1c0,0.1,0.6,0.4,0.7,0.3c0.4-0.3,0.8-0.7,1.1-1.1
	c0.2-0.3,0.1-0.8,0-1.1c0-0.2-0.2-0.4-0.2-0.7c-0.2-0.7-0.2-0.7,0.4-0.9c0.1,0,0.3-0.1,0.3-0.2c0.1-0.2,0.3-0.5,0.3-0.8
	c-0.1-1.1,0.3-2.1,0.3-3.1c0-1-0.3-2.1,0.2-3.1c0.1-0.2,0-0.4,0-0.6c-0.1-0.5-0.6-0.8-1-0.5c-0.4,0.3-0.8,0.7-1.3,1
	c-0.1,0.1-0.1,0.1-0.2,0.2c0-0.1-0.1-0.1-0.1-0.2c0.1-0.8-0.1-1.7,0.2-2.5c0.2-0.5,0.1-1.2,0-1.8c0-0.1-0.2-0.3-0.3-0.4
	c-0.1,0.1-0.1,0.3-0.2,0.3c-0.3,0.2-0.2,0.5-0.2,0.8c0,0.3,0,0.6,0,0.9c0,0.3-0.3,0.3-0.4,0.1c-0.3-0.4-0.5,0.3-0.7,0.1
	c0,0.2,0.1,0.3,0.1,0.5c0.1,0.3,0.4,0.6,0.4,0.9c0,0.3-0.2,0.5-0.4,0.8c-0.2,0.2-0.3,0.5-0.3,0.8c0,0.6,0,1.1,0,1.7
	c0,0.3,0,0.5-0.3,0.7c-0.3,0.2-0.4-0.2-0.5-0.3c-0.1,0-0.1-0.1-0.2-0.2c-0.3-0.3-0.3,0-0.3,0.2c-0.1,0.2-0.3,0.4-0.2,0.5
	c0.1,0.2,0.2,0.6,0.4,0.7c0.3,0.2,0.6,0.3,0.5,0.7c-0.1,0.3-0.1,0.7-0.5,0.9c-0.4,0.2-0.5,0.6-0.5,0.9c0.1,1.2-0.3,2.3-0.3,3.4
	c0,0.5,0,1,0,1.4c0,0.4-0.2,0.9-0.3,1.3c0,0.1-0.1,0.2-0.2,0.2c-0.1-0.1-0.3-0.3-0.3-0.3c0.3-0.7,0.2-1.4,0.2-2.1c0-0.4,0-0.8,0-1.2
	c0-0.6,0-1.1,0.3-1.5c0.3-0.4,0.3-0.9,0.1-1.3c-0.3-0.5-0.3-1.1-0.1-1.5c0.2-0.4,0.1-0.8,0.2-1.2c0.1-0.4-0.1-0.5-0.5-0.5
	c-0.3,0-0.5-0.4-0.1-0.7c0.4-0.3,0.4-0.7,0.4-1.1c0-0.6-0.1-1.2,0.1-1.6c0.2-0.4,0.1-0.5-0.1-0.7c-0.1-0.1-0.2-0.3-0.2-0.5
	c0.2,0,0.4-0.1,0.6-0.1c0.4-0.1,0.4,0.1,0.4,0.4c0,0.4,0,0.9,0,1.3c0,0.3,0.1,0.3,0.4,0.3c0.3,0,0.3-0.1,0.4-0.3
	c0.3-0.7-0.1-1.4-0.2-2.1c0-0.6-0.6-1-0.7-1.6c-0.2-0.8-0.2-1.6-0.2-2.4c0-0.4,0-0.9-0.3-1c-0.6-0.4-1-0.6-0.2-1.2
	c0-1,0.1-2-0.8-2.8c-0.2-0.2-0.4-0.3-0.5-0.6c-0.1-0.3-0.3-0.6-0.2-0.9c0.1-0.4,0.4-0.5,0.8-0.5c0.1,0,0.2-0.2,0.2-0.3
	c0-0.1-0.1-0.4-0.2-0.4c-0.3,0-0.6-0.1-0.8-0.3c-0.7-0.7-1.1-1.6-1.1-2.5c0-0.8-0.2-1.6-0.6-2.2c-0.5-0.8-0.9-1.7-0.7-2.7
	c0-0.1,0-0.2,0-0.3c-0.2-0.4-0.4-0.7-0.6-1c-0.3,0.3-0.1,0.6-0.2,0.9c0,0.1-0.2,0.2-0.2,0.4c-0.1-0.1-0.2-0.2-0.3-0.3
	c-0.2-0.3-0.3-0.6-0.5-0.9c-0.2-0.2-0.3-0.5-0.5-0.7c-0.2-0.2-0.3-0.1-0.5,0c-0.2,0.2-0.1,0.3,0,0.5c0.1,0.6,0.5,1,0.6,1.5
	c0.1,0.6,0.3,1.1,0.5,1.6c0.2,0.6-0.1,1.3,0.3,1.8c0.1,0.1-0.1,0.3-0.1,0.4c0-0.1-0.1-0.3-0.1-0.3c-0.5-0.3-0.1-0.9-0.4-1.3
	c-0.3-0.3-0.4-0.8-0.4-1.3c0-0.2-0.2-0.3-0.4-0.5c-0.1,0.2-0.3,0.3-0.4,0.5c-0.1,0.2-0.1,0.5,0,0.6c0.3,0.3,0.1,0.7,0.3,1.1
	c0.3,0.6,0,1.3,0.3,1.8c0.3,0.5,0,1,0.3,1.4c0.3,0.5,0.1,1.1,0.2,1.6c0,0.2-0.1,0.4,0,0.5c0.4,0.5,0.2,1.1,0.3,1.6
	c0.1,0.5,0.2,1,0.2,1.6c0,0.8,0,1.6,0,2.3c0,0.3-0.1,0.4-0.4,0.4c-0.4,0-0.3-0.3-0.4-0.5c0-0.5,0.1-1.1-0.3-1.6
	c-0.3-0.3-0.3-0.7-0.3-1.1c0-0.6,0-1.2,0-1.8c0-0.6-0.1-1-0.4-1.5c-0.4-0.7-0.7-1.5-0.7-2.3c0-0.6-0.2-1.2-0.3-1.8
	c-0.5-1.6-0.9-3.2-1.5-4.8c-0.4-1.2-0.7-2.4-1.2-3.6c-0.3-0.7-0.5-1.4-1-1.9c-0.1-0.1-0.1-0.3-0.1-0.5c0-0.5-0.3-0.9-0.6-1.3
	c-0.4-0.4-0.8-0.8-0.9-1.3c-0.3-1.1-0.7-2-1.1-3c-1-2.5-2.5-4.7-4.3-6.6c-2.2-2.4-4.5-4.5-6.8-6.8c-0.1-0.1-0.2-0.3-0.4-0.4
	c-0.1-0.1-0.3-0.1-0.3,0c-0.1,0.1-0.1,0.2-0.1,0.3c0,0.2,0.1,0.3,0.2,0.4c0.5,0.7,1.1,1.4,1.6,2.2c1,1.7,2.2,3.4,3.1,5.2
	c0.3,0.5,0.5,1.1,0.8,1.6c0.2,0.3,0.4,0.6,0.5,0.9c0.4,0.7,0.7,1.4,1,2.2c0.1,0.1,0,0.3,0,0.5c0,0.1,0,0.2-0.1,0.2
	c-0.1,0-0.1,0-0.2-0.1c-0.2-0.2-0.4-0.4-0.5-0.7c-0.4-1.5-1.4-2.6-2.1-3.9c-0.5-1-1.3-1.8-1.9-2.7c-0.4-0.6-0.8-1.1-1.2-1.7
	c-0.6-0.9-1.3-1.7-2-2.6c-0.1-0.1-0.1-0.2-0.2-0.3c0.6,1.5,1.3,2.9,1.9,4.4c0.5,1.3,1.1,2.7,1.6,4c0.4,0.9,0.8,1.8,1,2.8
	c0.3,1.1,0.8,2.2,1.2,3.3c0.5,1.3,0.6,2.7,1.3,3.9c0,0.1,0,0.1,0,0.2c0,0.4,0,0.8,0.2,1.2c0.2,0.7,0.3,1.5,0.3,2
	c0,0.4-0.1,0.6-0.1,0.8c0,0.1-0.1,0.1-0.1,0.2c-0.1-0.1-0.2-0.1-0.3-0.2c-0.1-0.1-0.4-0.3-0.4-0.4c-0.1-0.9-0.6-1.8-0.5-2.8
	c0-0.2,0.1-0.4,0-0.5c-0.5-0.5-0.4-1.1-0.5-1.6c-0.2-0.5-0.7-1.1-0.5-1.7c-0.5-1.3-0.6-2.7-1.2-4c-0.4-0.9-0.5-1.9-1-2.8
	c-0.5-0.9-0.6-1.9-1.1-2.9c-0.5-1-0.8-2.1-1.3-3.1c-0.4-1-0.9-2.1-1.4-3.1c-0.3-0.7-0.6-1.4-0.9-2.1c-0.3-0.5-0.6-1-1-1.5
	c-0.5-0.7-0.5-0.7,0.1-1.2c0.5-0.5,0.5-1,0.3-1.5c-0.6-1.6-1.4-3.1-1.9-4.7c-0.4-1.5-0.9-2.9-0.9-4.4c0-0.2,0-0.4,0-0.6
	c0,0-0.2-0.1-0.2-0.1c-0.2,0.2-0.5,0.5-0.5,0.7c0,1-0.4,1.9-0.5,2.9c-0.1,1.2-0.3,2.4-0.3,3.6c0,1.6,0,3.2,0,4.8
	c0,1.1,0.3,2.1,0.6,3.1c0.1,0.4,0.3,0.8,0.4,1.2c0.6,1.6,1.3,3.1,2.2,4.5c0.6,0.9,1.2,1.8,1.7,2.8c0.1,0.1,0.2,0.3,0.2,0.4
	c-0.4,0.9-0.2,1.7,0,2.5c0.1,0.6,0.3,1.2,0.5,1.9c0.2,0.6,0.3,1.3,0.5,2c0.3,1.1,0.7,2.3,0.8,3.4c0.1,0.5,0.1,1.1,0.3,1.4
	c0.3,0.5,0,1.1,0.5,1.5c0.2,1.2,0.7,2.3,0.8,3.6c0.1,0.5,0.1,1.1,0.3,1.5c0.2,0.4,0,0.9,0.3,1.2c0.3,0.4,0.1,0.8,0.2,1.2
	c0,0.1,0,0.3,0.1,0.3c0.5,0.5,0.4,1.2,0.4,1.8c0,0.3-0.1,0.7,0.2,0.9c0.1,1.2,0.5,2.4,0.5,3.7c0,0.2-0.1,0.4-0.1,0.6
	c-0.1-0.2-0.1-0.4-0.2-0.6c0-0.2-0.1-0.3-0.2-0.4c-0.2-0.5-0.4-0.9-0.3-1.4c0-0.2-0.1-0.4-0.1-0.6c-0.2-0.9-0.5-1.9-0.6-2.8
	c-0.1-1-0.4-2-0.6-3c-0.3-1.2-0.7-2.3-0.9-3.5c-0.3-1.2-0.7-2.4-0.9-3.7c-0.2-1.2-0.8-2.4-1-3.7c-0.4-0.3,0-0.8-0.3-1
	c-0.3-0.3,0-0.8-0.3-1.1c-0.5-0.4,0.2-0.7,0.1-1c-0.1-0.1-0.1-0.3-0.2-0.4c-0.4-0.8-0.8-1.6-1.1-2.4c-0.4-1.2-0.9-2.4-1.5-3.5
	c-0.4-0.7-0.5-1.6-1.1-2.2c-0.5-2.1-1.9-3.9-1.8-6.1c-0.5-0.5,0-1.1-0.3-1.6c-0.4-0.6-0.2-1.2-0.2-1.7c0-2.8,0-5.6,0-8.4
	c0-0.3-0.1-0.7,0-0.9c0.3-0.6,0.2-1.1,0.2-1.7c0.1-0.6,0.2-1.2,0.2-1.8c0-1.3,0-2.5,0-3.8c0-0.4-0.1-0.7-0.3-1.1
	c-0.1-0.3-0.3-0.3-0.5-0.1c-0.5,0.5-1,1-1.3,1.7c-0.4,0.7-0.7,1.6-0.8,2.4c-0.1,0.9-0.3,1.7-0.3,2.6c0,1.2-0.1,2.3,0.2,3.5
	c0.2,0.7,0,1.5,0,2.3c0,0.8,0.2,1.6,0.2,2.4c0.1,1.1,0.1,2.3,0.3,3.4c0.1,0.6,0,1.2,0.3,1.7c0.4,0.8,0.3,1.8,0.7,2.6
	c0.4,0.8,0.2,1.8,0.6,2.6c0.1,0.4,0.2,0.8,0.3,1.2c0.2,1,0.2,2.1,0.6,3c0.3,0.8,0.4,1.6,0.6,2.3c0.3,0.7,0.8,1.5,0.6,2.3
	c0.5,0.3,0.1,0.5,0,0.8c-0.4,0.8-0.6,1.6-0.5,2.5c0,0.3,0.3,0.6,0.2,0.9c-0.1,1.4,0.5,2.8,0.3,4.2c0,0.1,0,0.3,0,0.4
	c0.4,0.4,0.1,1,0.2,1.5c0.1,0.5,0.2,1,0.2,1.4c0,1,0.5,1.9,0.3,2.9c0.5,0.5,0.1,1.2,0.4,1.8c0.3,0.6,0.1,1.3,0.2,1.9
	c0,0.1,0,0.3,0,0.4c0.5,0.4,0,1,0.3,1.4c0.3,0.5,0.2,1.1,0.2,1.6c0,1.1,0.5,2.2,0.3,3.3c0,0.1,0.1,0.2,0.1,0.3
	c0.2,0.4,0.2,0.9-0.1,1.3c0,0.1-0.1,0.1-0.2,0.2c-0.1-0.1-0.2-0.2-0.2-0.2c0.2-1.5-0.7-2.9-0.5-4.5c-0.6-0.6-0.2-1.3-0.5-2
	c-0.3-0.6-0.3-1.5-0.4-2.2c-0.2-1.1-0.6-2.2-0.5-3.3c-0.6-1.4-0.4-2.9-0.8-4.3c-0.2-0.6,0.2-1.3-0.2-1.9c-0.3-0.5,0.1-1.3-0.4-1.8
	c0.1-1.1-0.1-2.3-0.2-3.4c-0.1-0.6-0.1-1.1,0.2-1.7c0.2-0.5,0.1-1.2-0.2-1.8c-0.2-0.4,0-1,0-1.5c0-0.5-0.2-1-0.2-1.4
	c-0.1-0.6-0.1-1.1-0.2-1.7c-0.3-1.5-0.5-3-0.8-4.5c-0.2-0.8-0.3-1.6-0.6-2.4c-0.1-0.3-0.2-0.5-0.2-0.8c0-0.4-0.1-0.7-0.2-1.1
	c-0.4-1.4-0.6-2.8-0.8-4.2c-0.2-1-0.4-2-0.5-3c0-0.2-0.2-0.4-0.2-0.5c0.1-0.9-0.5-1.7-0.5-2.5c0-0.1-0.1-0.1-0.1-0.2
	c-0.1,0.1-0.1,0.1-0.2,0.2c-0.1,0.1-0.2,0.2-0.2,0.3c0.2,1.1-0.3,2.1-0.3,3.1c0.1,3.8-0.2,7.7,0.3,11.6c-0.2,1.4,0.4,2.6,0.6,3.9
	c0.3,1.4,0.8,2.7,1.2,4c0.2,0.5,0.1,0.6-0.3,0.7c-0.2,0-0.5-0.1-0.5,0.3c0,0.7-0.2,1.5,0,2.1c0.3,0.8,0,1.6,0.3,2.3
	c0.4,0.8,0.1,1.7,0.1,2.5c0,1,0.5,1.9,0.3,2.9c0.4,0.6,0.1,1.3,0.3,1.8c0.4,1.1,0.1,2.2,0.2,3.3c0,0.4-0.3,1.2-0.4,1.1
	c-0.4-0.2-0.3-0.7-0.3-1c-0.1-1,0-2.1-0.2-3.1c-0.2-1.2-0.5-2.4-0.3-3.6c0-0.3,0.1-0.6,0-0.8c-0.4-0.4-0.2-0.9-0.2-1.3
	c-0.1-0.5-0.2-1-0.2-1.4c-0.1-1.2-0.2-2.3-0.3-3.5c0,0,0-0.1,0-0.1c-0.4-0.5-0.1-1.1-0.3-1.6c-0.3-0.6-0.2-1.2-0.2-1.7
	c0-0.2,0-0.3-0.1-0.5c-0.3-0.8-0.5-1.7-0.5-2.5c0-0.3,0.1-0.7,0-0.8c-0.5-0.4-0.1-1-0.4-1.5c-0.3-0.5-0.1-1.2-0.1-1.8
	c0-1.4,0-2.9,0-4.3c0-0.3,0-0.5,0-0.8c-0.2-1.1-0.2-1.1,0-2c0.1-0.3,0.1-0.7,0-0.8c-0.2-0.3-0.2-0.6-0.2-0.8
	c0.1-0.9-0.2-1.8,0.2-2.6c0.1-0.1,0.1-0.3,0-0.4c-0.4-0.4-0.2-0.9-0.2-1.3c0-0.5,0-1,0-1.4c0-0.2-0.3-0.4-0.5-0.5
	c-0.1-0.1-0.3,0-0.5,0.1c0.1,0.3-0.5,0.5-0.2,1c0.2,0.3,0.3,0.9,0.1,1.2c-0.4,0.8-0.2,1.6-0.2,2.4c0,1.6,0,3.2,0,4.8
	c0,0.3,0,0.6-0.1,0.9c-0.2,0.4-0.2,0.7,0,1.2c0.3,0.6,0.4,1.2,0.4,1.9c-0.1,1.5,0,3,0,4.5c0,0.3-0.1,0.6,0.1,0.9
	c0.4,0.7,0.3,1.4,0.1,2c-0.1,0.4-0.1,0.8-0.2,1.2c-0.1,0.4-0.1,0.8-0.3,1.2c-0.2,0.7-0.1,1.3-0.3,2c-0.3,1.2-0.5,2.3-0.5,3.5
	c0,0.1,0.1,0.3,0,0.4c-0.5,0.5,0,1.2-0.3,1.7c-0.3,0.6-0.1,1.2-0.2,1.7c0,0.1-0.1,0.2-0.2,0.4c-0.1-0.1-0.3-0.2-0.3-0.4
	c-0.1-0.2,0-0.4,0-0.6c0-1.4,0.4-2.8,0.3-4.2c-0.1-1-0.2-1.9,0.2-2.9c-0.1-1.2,0.2-2.4,0.2-3.7c0-2.4,0-4.8,0-7.1c0-2.3,0-4.7,0-7
	c0-2.3-0.2-4.7,0.2-7c0.2-0.8,0-1.7,0-2.6c0-0.7-0.3-1-0.8-1.3c-0.4-0.2-0.8-0.4-0.3-0.9c0.1-0.1,0-0.3-0.1-0.4
	c-0.2-0.3-0.5-0.3-0.7,0c-0.2,0.3-0.5,0.4-0.8,0.3c-0.3-0.1-0.4-0.4-0.4-0.8c0-1.1,0-2.2,0.6-3.1c0.7-1.2,0.9-2.5,1.2-3.8
	c0.2-0.6,0.5-0.9,0.9-1.2c0.3-0.2,0.7-0.1,1,0c1.5,0.6,2.8-0.7,2.8-2c0-0.3,0.1-0.8-0.3-0.9c-0.3-0.1-0.6,0.2-1,0.3
	c0,0-0.1,0.1-0.1,0.1c-0.8,0.5-1.6,1.1-2.4,1.6c-2.2,1.4-2.2,1.4-3.6,3.4c-0.3,0.4-0.2,1.1-0.8,1.4c0,0.6-0.5,1-0.7,1.5
	c-0.4,1.1-1.2,1.9-1.8,2.9c-0.1,0.2-0.4,0.4-0.7,0.5c-0.6,0.2-0.9,0.1-0.9-0.4c0-0.1,0-0.3,0-0.4c0-0.6,0-1.2,0-1.8
	c0-0.6-0.1-1.1-0.3-1.7c-0.1-0.5-0.3-1-0.5-1.5c-0.1-0.4-0.5-0.2-0.6-0.2c-0.2,0-0.3,0.3-0.4,0.5c-0.7,1-1.4,2-1.8,3.1
	c-0.1,0.3-0.2,0.3-0.4,0.2c-0.2-0.1-0.6-0.3-0.7-0.2c-0.2,0.2-0.2,0.3,0,0.5c0,0,0.1,0,0.1,0c0.3,0.1,0.7,0.2,0.3,0.6
	c0.2,0.4,0.6,0.5,1.2,0.1c0.6-0.4,0.7-0.4,1.1,0.1c0.4,0.5,0.7,1.1,1,1.7c0.8,1.6,0.4,3-0.4,4.3c-0.5,0.8-1.1,1.6-1.6,2.4
	c-0.7,1.2-1.3,2.5-1.9,3.7c-0.1,0.2-0.2,0.5-0.3,0.8c0,0.1,0,0.3,0.1,0.3c0.1,0,0.4,0,0.4-0.1c0.5-0.5,1-1.1,1.3-1.7
	c0.5-0.9,1.3-1.7,1.9-2.6c0.4-0.5,1-0.8,1.4-1.2c0.3-0.3,0.6-0.5,1-0.4c0.9,0.2,1.5-0.3,1.8-1c0.2-0.4,0.5-0.5,0.8-0.7
	c0.1,0,0.2,0,0.2,0c-0.1,0.3,0.5,0.5,0.1,1c-0.3,0.3-0.4,0.9-0.6,1.3c-0.3,0.6-0.7,1.2-1.1,1.8c-0.4,0.9-0.8,1.9-1.4,2.7
	c-1.1,1.4-1.7,3.1-2.7,4.6c-0.4,0.6-0.7,1.3-1.3,1.8c-0.4,0.3-0.6,0.8-0.8,1.2c-0.3,0.6-0.6,1.3-1,1.9c-0.8,1.1-1.8,2-2.5,3.3
	c-0.2,0.4-0.4,0.8-0.7,1.1c-0.3,0.3-0.5,0.7-0.9,0.9c-0.4,0.3-0.3,0.9-0.9,0.9c-0.1,0-0.1,0.3-0.2,0.4c0-0.2-0.1-0.3-0.1-0.5
	c-0.1-0.3,0.1-0.5,0.3-0.8c1.3-1.4,2.4-2.8,3-4.6c0.1-0.3,0.4-0.5,0.5-0.8c0.8-1.2,1.5-2.4,2.3-3.6c0.5-0.7,0.8-1.4,1.3-2.1
	c1-1.4,1.7-3,2.6-4.5c0.2-0.4,0.2-0.9,0.5-1.2c0.3-0.4,0.2-0.9,0.5-1.2c0.1-0.1,0-0.3-0.1-0.5c-0.1,0-0.3,0-0.4,0.1
	c-0.9,0.9-1.7,1.9-2.6,2.8c0,0.7-0.8,0.9-1.1,1.5c-0.4,0.9-1.2,1.6-1.7,2.4c-0.6,0.9-1.2,1.7-1.9,2.6c-0.8,1.1-1.5,2.3-2.3,3.4
	c-1.3,1.9-2.4,3.9-3.6,5.9c-0.2,0.3-0.3,0.8-0.6,1.1c-0.3,0.4-0.1,1-0.6,1.2c-0.5,0.2-0.3,0.7-0.5,1.1c-1.1,1.6-2.3,3-3.2,4.7
	c0,0.1-0.2,0.1-0.3,0.1c0-0.1-0.1-0.2,0-0.3c0.3-0.6,0.7-1.2,1-1.8c0.6-1,1.2-2,1.7-3c0.1-0.1,0.2-0.3,0.2-0.4c0,0-0.2-0.2-0.2-0.2
	c-0.1,0-0.2,0.1-0.3,0.2c-0.2,0.1-0.2,0.5-0.4,0.2c0,0,0.1-0.3,0.2-0.4c0.5-0.7,0.9-1.5,1.9-1.5c0.1,0,0.2-0.3,0.2-0.4
	c-0.1-0.6,0.2-1,0.6-1.4c0.3-0.2,0.7-0.4,0.7-0.9c0-0.5,0.3-0.8,0.4-1.2c0.1-0.3,0.2-0.7,0.3-1c0,0-0.2-0.1-0.2-0.1
	c-0.2,0.1-0.5,0.3-0.7,0.5c-1.8,1.8-3.7,3.5-5.1,5.6c-0.2,0.3-0.5,0.5-0.7,0.7c-0.3,0.2-0.6,0.1-0.7-0.3c0-0.1,0-0.3-0.1-0.4
	c-0.1-0.2-0.3-0.4-0.6-0.1c-0.3,0.4-0.6,0.7-0.9,1c-0.5,0.7-0.9,1.5-1.5,2.1c-0.4,0.3-0.6,0.8-0.9,1.1c-0.4,0.3-0.5,0.8-0.8,1.2
	c-0.3,0.4-0.7,0.8-1,1.2c-0.8,1-1.5,2.1-2.4,3c-0.2,0.2-0.8,0.1-0.7,0.7c-1.1,0.8-1.5,2.2-2.3,3.2c-0.1,0.1-0.1,0.2-0.2,0.3
	c0-0.1-0.1-0.2-0.1-0.3c0-0.7,0.4-1.2,0.7-1.8c0.2-0.4,0.9-0.7,0.3-1.3c0.3-0.1,0.1-0.7,0.6-0.7c0.5,0.1,0.8-0.2,1.1-0.5
	c0.9-0.9,1.6-1.9,2.4-2.9c0.8-1.1,1.8-2,2.5-3.1c1-1.5,2.2-2.9,3.4-4.2c0.4-0.4,0.8-0.9,1.1-1.4c0.3-0.4,0.4-1.1,0.2-1.1
	c-0.3,0-0.7,0.2-1,0.4c-0.5,0.4-1.2,0.7-1.5,1.3c-0.3,0.7-1.1,0.8-1.4,1.3c-0.3,0.5-0.8,0.9-1.4,1.2c-0.5,0.3-0.7,0.9-1.2,1.1
	c-0.7,0.3-0.5,1-0.8,1.4c-0.2,0.3-0.4,0.5-0.6,0.8c-0.4,0.5-0.8,1-1.1,1.5c-0.2,0.4-0.5,0.8-0.8,1.2c-0.3,0.4-0.4,0.9-0.9,1.2
	c-0.4,0.2-0.6,0.8-0.9,1.1c-0.6,0.6-1.1,1.3-1.9,1.7c-0.4,0.2-0.6,0.9-0.9,1.3c-0.3,0.4-0.8,0.7-1.2,1.1c-0.1,0.1,0,0.2-0.1,0.3
	c-0.2,0.2-0.4,0.5-0.6,0.6c-0.1,0.1-0.2,0-0.3,0c0-0.1,0-0.1,0.1-0.2c0.6-0.8,1-1.8,1.7-2.5c0.4-0.4,0.9-0.7,1.1-1.3
	c0.2-0.6,0.8-1.2,1.3-1.6c0.9-0.8,1.4-1.9,2.1-2.9c0.4-0.6,0.7-1.3,1.1-1.9c0.6-0.8,1.3-1.5,2-2.3c0.3-0.3,0.5-0.7,0.6-1.2
	c0-0.2,0-0.3-0.3-0.2c-0.1,0.1-0.3,0.1-0.4,0.2c-1.4,1.1-2.8,2.2-4.2,3.4c-0.6,0.5-1.2,1.2-1.9,1.6c-0.8,0.5-1.4,1.1-1.9,1.9
	c-0.2,0.3-0.5,0.8-1.1,0.8c-0.7,0.7-1.4,1.4-2.1,2.1c0.1,0.4-0.3,0.6-0.5,0.8c-0.7,0.7-1.4,1.5-1.9,2.4c-0.2,0.4-0.6,0.7-0.8,1.1
	c-0.2,0.4-0.5,0.7-0.6,1.2c-0.1,0.6-0.8,0.4-0.9,0.9c0,0.1-0.1,0.3-0.1,0.4c0,0.4-0.1,1-0.3,1.2c-0.2,0.2-0.2,0.4-0.3,0.7
	c0,0.4,0.2,0.8-0.2,1.1c0,0,0.2,0.3,0.3,0.4c0.1,0,0.4-0.1,0.3-0.2c0-0.3,0.1-0.5,0.3-0.8c0.2-0.3,0.4-0.6,0.7-0.7
	c0.3-0.2,0.4-0.6,0.7-0.9c0.1-0.1,0.1-0.2,0.2-0.2c0.1,0,0.3-0.1,0.3,0c0.1,0.1,0.1,0.2,0.1,0.3c0.1,0.4-0.4,0.5-0.5,0.8
	c0.5,0.2,0,0.5-0.1,0.7c-0.1,0.3-0.4,0.5-0.6,0.7c-0.3,0.3-0.4,0.6-0.5,1c-0.1,1-0.9,1.9-0.8,3c0,0.1-0.2,0.3-0.3,0.4
	c-0.2,0.1-0.4,0.2-0.6,0.4c-0.4,0.3-0.5,0.6-0.2,1c0.6,0.6,0.5,1.1,0.1,1.8c-0.4,0.6-0.7,1.4-1,2.1c-0.1,0.2-0.2,0.5,0.3,0.6
	c0.5,0.1,0.7,0.7,0.5,1c-0.4,0.6-0.1,1.3-0.4,1.9c-0.2,0.6-0.1,1.3-0.1,2c0,0.2,0,0.4,0,0.5c-0.4,1.1-0.4,2.2,0,3.3
	c0.1,0.2,0,0.5-0.1,0.7c0,0.1-0.3,0.3,0,0.3c0.2,0,0.6,0.2,0.6-0.2c0-0.7,0.5-1.2,0.5-1.9c0-0.7,0.1-1.4,0.4-1.9
	c0.2-0.6,0.1-1.2,0.3-1.8c0.3-0.9,0.4-1.8,0.7-2.7c0.4-1,0.4-2.1,1-3.1c0.1-0.1,0.1-0.2,0.2-0.2c0,0.1,0.1,0.1,0.1,0.2
	c0.1,1.1-0.5,2-0.7,3.1c-0.1,0.5,0.2,1-0.3,1.4c0,0.8-0.4,1.4-0.3,2.2c0.1,0.3,0.1,0.7,0,0.9c-0.5,0.4,0,1-0.3,1.4
	c-0.3,0.5-0.1,1.1-0.2,1.6c0,0.2,0,0.4,0,0.6c-0.4,0.9-0.5,1.9-0.5,2.9c0,0.4,0.2,0.9-0.2,1.2c0.1,1-0.3,2,0.2,2.9
	c-0.1,0.6,0.4,1,0.5,1.5c0.1,0.6,0,1.2,0,1.8c0.1,1.1-0.4,2.1-0.8,3.1c-0.1,0.3-0.3,0.3-0.5,0.3c-0.1,0-0.3-0.1-0.3-0.2
	c-0.2-0.4-0.4-0.8-0.2-1.3c0.3-0.7,0.3-1.4-0.1-2c-0.2-0.4-0.4-0.7-0.3-1.2c0-0.2,0-0.5-0.1-0.6c-0.7-0.5-0.4-1.2-0.4-1.8
	c-0.1-0.5,0.2-1.1-0.2-1.6c-0.1-0.1,0-0.4,0.1-0.6c0.2-0.7,0.4-1.3-0.2-1.9c-0.2-0.2-0.2-0.6,0-0.8c0.6-0.4,0.5-1.1,0.3-1.5
	c-0.3-0.6-0.2-1.2-0.2-1.9c0-0.7,0.2-1.3,0.2-2c0-0.8,0-1.6,0-2.3c0-0.9,0-1.8,0-2.7c0-0.2,0-0.4,0-0.6c0-0.1-0.2-0.3-0.4-0.3
	c0,0-0.2,0.2-0.3,0.3c-0.5,1.1-0.9,2.2-1.1,3.4c-0.2,1.3-0.6,2.6-0.6,3.9c-0.4,0.6-0.1,1.3-0.3,1.8c-0.5,1.2-0.1,2.4-0.2,3.5
	c0.4,0.5,0.1,1.1,0.3,1.6c0.3,0.5,0.2,1.1,0.2,1.6c0,0.2,0.1,0.3,0.1,0.5c0.1,0.5,0.3,0.9,0.4,1.4c0.1,0.5,0.2,1.1,0.3,1.6
	c0.1,0.5,0.2,1.1,0.3,1.6c0.1,0.3,0.2,0.5,0.2,0.8c0.1,1.3,0.4,2.5,0.9,3.8c0.2,0.5,0.3,1.1,0.3,1.7c0,0.6,0.1,1.2,0.3,1.7
	c0.4,1.1,0.8,2.1,1.3,3.1c0.8,1.6,1.6,3.2,2.6,4.6c0.2,0.3,0.5,0.5,0.8,0.8c0.1,0.1,0.3,0,0.5-0.1c0,0,0-0.2,0-0.3
	c-0.2-0.5-0.5-1-0.7-1.5c-0.7-1.5-1-3.1-1.3-4.8c-0.1-0.6,0-1.3,0-1.9c0-0.4,0.1-0.8,0.1-1.1c0.2,0.3,0.4,0.6,0.5,1
	c0.2,0.4,0.2,0.9,0.6,1.2c-0.1,0.6,0.7,1.2,0,1.9c0,0,0.1,0.3,0.1,0.3c0.5,0,0.4,0.3,0.4,0.6c0,0.4-0.1,0.8,0,1.1
	c0.7,2.3,1.7,4.5,3.1,6.5c0.2,0.3,0.5,0.6,0.8,0.8c0.1,0.1,0.3,0.1,0.3,0c0.1-0.1,0.1-0.2,0.1-0.3c-0.1-0.3-0.2-0.6-0.4-0.9
	c-1.1-1.5-1.6-3.4-2.9-4.8c-0.2-0.2,0-0.6-0.1-0.9c0.2,0.1,0.4,0.2,0.5,0.4c0.3,0.3,0.5,0.6,0.7,0.9c0.7,1,1.3,2,1.9,3.1
	c0.7,1.3,1.7,2.4,2,3.8c0.2,0.8,0.3,0.9-0.6,1.1c-0.3,0.1-0.4,0.2-0.3,0.4c0.4,0.6,0.8,1.2,1.3,1.8c0.1,0.1,0.3,0.1,0.5,0.1
	c0.3,0,0.4-0.2,0.3-0.4c-0.2-0.3-0.4-0.6-0.6-0.9c-0.1-0.1-0.1-0.4,0-0.4c0.4-0.3,0.5-0.7,0.4-1.1c-0.1-0.4,0.1-0.9-0.2-1.4
	c-0.6-1.2-0.9-2.5-1.4-3.7c-0.2-0.4-0.4-0.8-0.5-1.2c-0.2-0.8,0.4-1.3,1.2-0.9c0.3,0.2,0.7,0.5,0.9,0.8c1,1.3,1.8,2.7,2.6,4.1
	c0.2,0.4,0.5,0.8,0.8,1.2c0.1,0.1,0.2,0.1,0.3,0.1c0.1,0,0.2-0.2,0.1-0.3c-0.1-0.5-0.4-0.9-0.5-1.4c-0.1-0.5-0.4-0.9-0.5-1.3
	c-0.1-0.5-0.3-1-0.5-1.5c-0.2-0.4-0.2-0.9-0.3-1.4c0-0.1,0-0.2,0.1-0.2c0.1,0.1,0.2,0.1,0.2,0.2c0.2,0.5,0.4,1.1,0.6,1.6
	c0.5,0.9,1,1.8,1.4,2.6c0.4,0.9,0.8,1.7,1.3,2.6c0.4,0.7,0.7,1.4,1.2,2.1c0.9,1.2,1.8,2.4,2.7,3.5c0.4,0.5,0.8,1,1.2,1.6
	c0.8,1,1.5,2,2.2,3c0.3,0.4,0.6,0.7,0.9,1.1c0.2,0.3,0.5,0.6,0.7,1c0.1,0.4,0.6,0.5,0.7,1c0.2,0.8,1,1,1.6,1.3
	c0.2,0.1,0.6-0.1,0.8-0.1c-0.1-0.2-0.3-0.4-0.4-0.6c-0.1-0.1-0.1-0.2-0.2-0.3c-0.5-0.7-0.7-1.6-1.6-1.9c-0.1,0-0.1-0.3-0.2-0.4
	c-0.8-0.9-1.3-2-2.1-2.9c-1-1.4-1.9-2.8-2.9-4.3c-0.7-1.1-1.3-2.2-1.9-3.3c-0.9-1.6-1.7-3.2-2.4-4.8c0-0.1,0.1-0.3,0.1-0.4
	c0.1,0.1,0.3,0.1,0.4,0.2c0.5,1,0.9,2.1,1.6,3.1c1.1,1.8,2.1,3.6,3.3,5.4c1.5,2.2,2.9,4.4,4.6,6.4c-0.1,0.5,0.7,0.4,0.6,0.9
	c-0.1,0.4,0.1,0.6,0.4,0.9c0.5,0.4,0.9,0.9,1.4,1.4c0.4,0.4,0.8,0.7,1.3,0.8c-0.1,0.6,0.4,1,0.6,1.6c0.1,0.3,0.8,0.5,1.1,0.3
	c0.1,0,0.1-0.2,0.1-0.2c-0.2-0.4-0.2-0.8-0.3-1.2c-0.1-0.6-0.8-0.6-1.3-0.9c0.2-0.5,0.5-1.1,0-1.6c-0.1-0.2-0.2-0.4-0.3-0.5
	c-0.7-0.5-1.1-1.3-1.4-2c-0.2-0.5-0.7-0.8-0.7-1.4c-1-1.2-1.5-2.8-2.2-4.2c-0.5-0.9-0.7-1.9-1.1-2.8c-0.6-1.1-0.7-2.4-1.2-3.5
	c0,0,0-0.1,0-0.1c0-0.1,0.1-0.2,0.1-0.3c0.1,0.1,0.1,0.1,0.2,0.2c0.1,0.2,0.2,0.4,0.3,0.5c0.6,1.2,1.1,2.5,1.8,3.7
	c0.4,0.8,0.9,1.5,1.3,2.3c0.5,1.3,1.2,2.5,1.8,3.8c0.1,0.3,0.3,0.3,0.5,0.4c0.2,0.1,0.3,0.3,0.3-0.1c0-0.9-0.2-1.8-0.7-2.6
	c-0.3-0.5-0.4-1.1-0.4-1.7c0-0.4,0.2-0.6,0.5-0.6c0.2,0,0.4,0.3,0.5,0.4c0.1,0.1,0.2,0.3,0.2,0.4c0.5,1.4,1.3,2.6,2.1,3.8
	c0.3,0.4,0.7,0.7,1,1c0.2,0.2,0.6,0.3,0.7,0.6c0.2,0.6,0.7,0.9,1.1,1.3c0.7,0.8,1.5,1.6,2.2,2.5c0.1,0.1,0.1,0.3,0.2,0.4
	c0.3,0.4,0.6,0.9,1,1.3c0.5,0.5,1,0.9,1.5,1.3c0.3,0.3,0.7,0.2,1,0c0.1-0.1,0.2-0.3,0.1-0.4c-0.3-0.8-0.3-1.8-1.1-2.4
	c-0.5-0.4-0.8-1-1.1-1.6c-0.4-1.1-0.9-2.1-1.4-3.2c-0.3-0.7-0.7-1.4-1-2.2c-0.3-1.1-1-2.1-1.1-3.3c-0.9-1.4-0.9-3.2-1.7-4.6
	c0.1-0.9-0.6-1.6-0.5-2.5c-0.6-0.7-0.4-1.6-0.7-2.4c-0.2-0.5,0-1.1,0-1.7c0.5,0.4,0.6,0.9,0.8,1.5c0.1,0.3,0.2,0.5,0.3,0.8
	c0.2,0.8,0.3,1.6,0.6,2.3c0.4,1,0.9,2,1.4,2.9c0.4,0.9,0.9,1.7,0.9,2.7c0,0.1,0.1,0.3,0.2,0.4c0.1,0.2,0.4,0.5,0.4,0.7
	c0.2,0.9,0.8,1.6,1.5,2.2c0.9,1,1.5,2.2,2,3.5c0.4,0.9,0.8,1.8,1.2,2.6c0.6,1.1,1.3,2.1,1.9,3.1c0.3,0.4,0.5,0.9,0.9,1.2
	c0.5,0.3,0.3,1,0.7,1.3c0.9,0.8,1.5,1.8,2.1,2.9c0.3,0.6,0.8,1.1,1.5,1.4c0.1,0,0.2,0.1,0.3,0.1c0.5-0.3,0.6-0.7,0.4-1.2
	c-0.1-0.4-0.2-0.9-0.4-1.3c-0.1-0.3-0.2-0.9-0.4-1c-0.5-0.2-0.5-0.6-0.6-0.9c-0.2-0.4-0.3-1-0.6-1.3c-0.6-0.7-1-1.5-1.3-2.3
	c-0.3-0.9-0.9-1.6-1.3-2.5c-0.4-0.8-0.9-1.6-1.1-2.5c-0.2-0.9-0.8-1.7-1.2-2.5c-0.5-1.2-1-2.4-1.6-3.6c-0.2-0.5-0.5-1-0.6-1.6
	c-0.2-1.3-1-2.4-0.8-3.7c-0.5-0.7-0.5-1.5-0.5-2.3c0-0.1,0-0.3-0.1-0.4c-0.2-0.7-0.4-1.3-0.5-2c0-0.4-0.2-0.7-0.2-1.1
	c0-0.4-0.1-0.7-0.2-1.1c-0.2-0.5-0.2-1.1-0.3-1.7c0-0.6,0-1.2,0-1.8c0-0.1,0.1-0.1,0.1-0.2c0,0.1,0.1,0.1,0.1,0.2c0,0.4,0,0.8,0,1.2
	c0,0.4,0.1,0.7,0.3,1.1c0.2,0.5,0.3,1,0.3,1.6c0,0.1,0.1,0.2,0.1,0.4c0.2,0.6,0.4,1.2,0.5,1.9c0.1,0.6,0.2,1.1,0.3,1.7
	c0.1,0.6,0.4,1.2,0.4,1.9c0,0.7,0.5,1.3,0.5,2c0.1,0.9,0.8,2.7,1.3,3.3c0.4,0.4,0.6,1,0.9,1.5c0.4,0.8,1,1.6,1.2,2.5
	c0,0.2,0.2,0.4,0.3,0.5c1.2,1.7,2,3.6,2.7,5.5c0.7,1.8,1.5,3.5,2.6,5.1c0.1,0.2,0.2,0.4,0.3,0.5c0.1,0.1,0.3,0.1,0.3,0.1
	c0.1-0.1,0.4-0.3,0.4-0.3c-0.4-0.5,0-1.2-0.3-1.5c-0.4-0.5,0-1-0.3-1.4c-0.3-0.5-0.1-1.1-0.2-1.6c-0.1-0.7-0.2-1.4-0.5-2
	c-0.2-0.4-0.3-0.9-0.3-1.3c0-0.1,0.1-0.2,0.2-0.3c0.1,0.1,0.3,0.1,0.3,0.3c0.6,0.9,0.6,2.1,1.3,3c-0.2,0.8,0.5,1.4,0.6,2.2
	c0.1,0.8,0.6,1.6,0.6,2.5c0,0.6,0.5,1.1,0.8,1.6c0.1,0.3,0.4,0.3,0.7,0.3c0.3-0.1,0.5-0.3,0.5-0.6c-0.1-0.6,0.2-1.3-0.4-1.8
	c-0.1,0-0.1-0.1-0.1-0.2c-0.1-0.7-0.4-1.3-0.5-2c-0.1-0.7-0.1-1.5-0.3-2.2c-0.1-0.5-0.2-1-0.3-1.4c-0.1-0.5,0.1-1.1-0.3-1.6
	c0.1-1.4-0.6-2.8-0.5-4.2c0-0.1,0-0.3,0-0.4c-0.4-0.3-0.1-0.7-0.2-1.1c-0.1-0.4-0.2-0.8-0.2-1.2c0-1,0-2,0-3c0-0.1,0.1-0.2,0.1-0.3
	c0,0.1,0.1,0.2,0.1,0.2c-0.3,1.3,0.7,2.4,0.5,3.7c0.4,0.4,0.2,1,0.3,1.4c0.1,0.5,0.4,1,0.5,1.5c0.1,0.5,0,1,0.3,1.5
	c0.2,0.4,0.3,0.9,0.3,1.3c-0.1,0.6,0.2,1.1,0.3,1.6c0.3,1,0.5,1.9,0.8,2.9c0.3,1.2,0.5,2.4,1.3,3.3c0.1,0.1,0.2,0.2,0.3,0.2
	c0.1,0,0.2-0.1,0.2-0.2c0.1-0.4,0.3-0.8,0.2-1.2c-0.1-1.1,0.5-2.2,0.3-3.3c0,0,0-0.1,0-0.1c0,0,0.1-0.1,0.1-0.1
	c0.1,0,0.2,0.1,0.2,0.1c0,0.5,0,1,0,1.4c-0.1,1,0.1,1.9,0.3,2.9c0.1,0.2,0.1,0.8,0.5,0.7c0.3-0.1,0.5-0.4,0.8-0.6c0,0,0-0.1,0-0.1
	c0-0.5,0.1-0.9,0.2-1.3c0.3-1.2,0.3-2.4,0.5-3.5c0.2-0.8,0-1.7,0.3-2.6c0.2-0.7-0.2-1.6,0.1-2.2c0.3-0.8,0.1-1.5,0.2-2.2
	c0.1-0.7,0-1.5,0-2.2c0-2.2,0-4.4,0-6.6c0-0.2,0-0.4,0-0.6c0,0,0.1-0.1,0.1-0.1c0.1,0,0.2,0.1,0.2,0.1c0,0.4,0,0.8,0,1.2
	c0,0.5-0.2,1.1,0.1,1.4c0.3,0.5,0.1,1,0.2,1.5c0.1,0.5,0.3,1,0.3,1.6c0,3.3,0,6.6,0,9.8c0,0.3,0,0.6,0,0.9c0,0.4,0.3,0.6,0.7,0.3
	c0.4-0.3,0.9-0.5,1-0.9c0.2-0.5,0.8-0.7,0.6-1.3c0-0.1,0.2-0.2,0.3-0.4c0.1,0.1,0.1,0.3,0.2,0.4c0,0.2,0.1,0.5,0,0.6
	c-0.6,1-0.4,2.1-0.9,3.1c-0.1,0.1-0.1,0.2-0.1,0.3c0,0.7-0.2,1.3-0.2,2c0,0.7-0.2,1.4-0.3,2.1c-0.2,0.8-0.1,1.6-0.6,2.3
	c-0.2,0.3-0.1,0.5,0.2,0.6c0.3,0.2,0.5,0.4,0.8-0.2c0.4-0.7,1.1-1.1,1-2.1c0-0.1,0.2-0.2,0.2-0.3c0.6-1.5,1.4-3,1.9-4.5
	c0.6-1.8,1.5-3.4,2.1-5.2c0.3-0.9,0.7-1.8,1-2.7c0.2-1,0.6-1.9,1-2.8c0.3-0.6,0.4-1.3,0.8-1.9c0.1-0.1,0.2-0.2,0.4-0.3
	c0,0.2,0.2,0.5,0.1,0.6c-0.3,0.5-0.6,1-0.5,1.6c-0.6,0.8-0.7,1.9-1,2.8c-0.3,1-0.6,1.9-0.9,2.9c-0.2,0.8-0.5,1.5-0.9,2.2
	c-0.2,0.3-0.6,0.7-0.2,1c0.4,0.3,0.6-0.4,0.9-0.6c0,0,0-0.1,0-0.1c0.8-1.5,1.6-3,2.3-4.5c0.1-0.2,0.2-0.5,0.4-0.7
	c0.1-0.1,0.2-0.2,0.3-0.2c0,0.2,0.1,0.3,0.1,0.5c0,0.1,0,0.2-0.1,0.2c-0.7,1.5-1.3,3-2,4.5c-0.3,0.6-0.5,1.2-0.8,1.8
	c-0.5,1.1-1.1,2.2-1.3,3.5c0,0.2-0.3,0.4-0.4,0.4c-0.5,0-0.5,0.5-0.7,0.8c-0.3,0.5-0.5,1.1-1,1.5c-0.1,0.1-0.2,0.3-0.2,0.4
	c-0.1,0.3-0.1,0.8-0.3,1c-0.4,0.4-0.2,0.8-0.2,1.2c0,0.3,0.3,0.4,0.7,0.2c0.9-0.5,1.5-1.3,2.3-1.9c0.4-0.3,0.6-0.7,0.9-1
	c0.9-0.9,1.1-2.1,1.8-3c0.3-0.4,0.5-1,0.8-1.4c1.1-1.6,2-3.3,2.9-5c1.3-2.4,2.2-4.9,3.2-7.4c0.3-0.8,0.2-1.7,0.8-2.4
	c0.1-0.1,0.1-0.2,0.2-0.4c0,0.1,0.1,0.2,0.1,0.3c0.1,0.5-0.1,1-0.4,1.4c-0.4,0.4,0,1-0.3,1.4c-0.3,0.4-0.5,1.1-0.3,1.7
	c0,0.1,0.1,0.3,0.2,0.3c0.1,0,0.3,0,0.3-0.1c0.4-1,0.9-2.1,1.6-3c0.1-0.1,0.1-0.3,0.2-0.5c0,0.2,0.1,0.3,0.1,0.5c0,0.6,0,1.2,0,1.8
	c0,0.4-0.1,0.7-0.4,0.7c-0.7,0.2-0.8,0.5-0.4,1c0.1,0.1,0,0.3,0,0.5c0,0.5,0,0.5-0.6,0.3c-0.3-0.1-0.6-0.1-0.8,0.2
	c-0.2,0.3-0.5,0.6-0.8,0.8c-0.2,0.2-0.1,0.4,0,0.5c0.3,0.3,0.5,0.3,0.7,0c0-0.1,0.2,0,0.3,0c0,0.1-0.1,0.2-0.1,0.3
	c-0.4,0.7-0.7,1.5-0.6,2.4c0,0.1,0.1,0.3,0.2,0.4c0.1-0.1,0.3-0.1,0.4-0.2c0.7-0.7,1.5-1.4,2-2.3c0.4-0.6,0.9-1,1.2-1.6
	c0.3-0.6,0.7-1.1,1-1.6c0.5-0.7,0.7-1.4,1.2-2.1c0.8-1.1,1.2-2.3,1.6-3.5c0.7-1.8,1.3-3.6,2.1-5.4c0.2-0.5,0.5-1,0.5-1.5
	c0.1-1,0.4-2,0.9-2.8c0.6-0.9,0.6-2,1.2-2.9c0.1-0.1,0-0.3,0-0.4c-0.2-0.8,0.3-1.5,0.5-2.2c0.2-0.6,0.5-1.3,0.8-1.9
	c0.5-1.4,1-2.8,1.3-4.3c0-0.1,0.2-0.2,0.3-0.2c0.1,0,0.2,0.1,0.2,0.2c0,0.1,0,0.2,0,0.3c0.1,1.1-0.5,2-0.6,3.1
	c-0.1,0.6-0.4,1.2-0.7,1.8c-0.4,0.7-0.4,1.6-1,2.3c0,1-0.5,1.8-0.7,2.7c-0.2,0.9-0.5,1.9-0.9,2.7c-0.5,1.2-1,2.4-1.7,3.4
	c-0.1,0.2,0,0.9,0.3,1c0.4,0.1,0.6-0.1,0.7-0.4c0.3-1,0.9-1.7,1.6-2.4c0.1-0.1,0.2-0.1,0.3-0.2c0,0.1,0,0.3,0,0.4
	c-0.5,1-1,2.1-1.6,3.1c-0.2,0.3-0.3,0.6,0,0.8C105.2,250,105.4,249.7,105.6,249.5z M71,152.4c-0.1-0.1-0.2-0.5-0.5-0.1
	c-0.2,0.2-0.3,0.5-0.4,0.7c0,0.1,0.1,0.3,0.2,0.5c0.3-0.2,0.5-0.3,0.5-0.4C70.9,152.9,71.4,152.8,71,152.4z M68.3,149.1
	c-0.2,0.2-0.4,0.4-0.5,0.6c0.1,0.1,0.2,0.2,0.3,0.2c0.2-0.1,0.4-0.3,0.7-0.6C68.5,149.1,68.3,149,68.3,149.1z M106.9,252.6
	c0.1-0.7,0.4-1.4,0.8-2c0.2-0.4,0.2-0.8,0.2-1.2c0-0.1-0.1-0.2-0.2-0.4c-0.1,0.1-0.2,0.2-0.3,0.3c-0.5,0.4-0.5,1-0.8,1.5
	c-0.3,0.4-0.5,1-0.7,1.5c-0.2,0.4-0.2,0.9-0.3,1.2c0,0.2,0,0.2,0,0.3c0,0.2-0.1,0.5,0.2,0.5c0.2,0,0.5,0.1,0.6-0.3
	C106.5,253.5,106.8,253.1,106.9,252.6z M54.6,237.7c0,0.4-0.1,0.7-0.1,1.1c0,0.3-0.2,0.6,0.2,0.9c0-0.3,0.1-0.6,0.1-0.9
	C54.6,238.5,55.1,238,54.6,237.7z M109.5,207.5c0,0,0-0.1,0-0.2C109.5,207.4,109.5,207.4,109.5,207.5
	C109.5,207.5,109.5,207.5,109.5,207.5C109.5,207.5,109.5,207.5,109.5,207.5z M109.5,228.4c0,0.1,0.1,0.3,0.1,0.5
	c0.2-0.1,0.4-0.2,0.5-0.3c0,0,0.1,0,0.1,0c0.6,0,0.6,0,0.4-0.5c-0.1-0.2-0.2-0.4-0.2-0.6c0-1-0.1-2,0.5-3c0.2-0.5,0.5-1.1,0.3-1.7
	c0-0.1-0.2-0.2-0.3-0.2c-0.1,0-0.2,0.1-0.2,0.2c-0.2,0.6-0.3,1.2-0.5,1.7c-0.3,0.6-0.2,1.3-0.5,1.9
	C109.5,227,109.6,227.6,109.5,228.4z M74.2,198.3c-0.1,0.1-0.3,0.2-0.2,0.3c0,0.2,0.1,0.4,0.2,0.5c0,0.1,0.1,0.1,0.2,0.2
	c0-0.1,0.1-0.1,0.1-0.2c0-0.1,0-0.2,0-0.3c0-0.1,0-0.2,0-0.2C74.4,198.5,74.3,198.4,74.2,198.3z M67.7,247.8c-0.4-0.2-0.4-0.7-0.5-1
	c0,0-0.1-0.1-0.2,0c-0.1,0-0.2,0.1-0.2,0.1c-0.1,0.3,0.2,1.1,0.4,1.2c0.2,0.1,0.4,0,0.6,0C67.7,247.9,67.7,247.8,67.7,247.8z
	 M88.2,248.2c0,0.4,0,0.8,0,1.2c0,0.4-0.2,0.8-0.2,1.2c0,0.1,0.1,0.2,0.1,0.3c0.1-0.1,0.3-0.2,0.4-0.3c0.1-0.7,0.2-1.4,0.3-2.3
	c0-0.1-0.1-0.3-0.1-0.4C88.5,247.9,88.3,248,88.2,248.2z M66.8,197.2c0.1-0.2,0.4-0.4,0.4-0.6c0.1-0.4,0-0.8,0-1.3c0,0,0-0.1,0-0.1
	c0-0.3-0.1-0.7-0.1-1c-0.1,0.3-0.4,0.7-0.4,1c-0.1,0.5,0,0.9,0,1.4C66.7,196.8,66.8,197,66.8,197.2z M88.7,248.2
	C88.7,248.2,88.7,248.2,88.7,248.2C88.7,248.2,88.7,248.2,88.7,248.2C88.7,248.2,88.7,248.2,88.7,248.2
	C88.7,248.2,88.7,248.2,88.7,248.2z M92.6,200.6c0,1.1,0.4,2.1,0.5,3.1c0.1,1,0.3,2,0.5,3c0.2,0.8,0.3,1.5,0.3,2.3
	c-0.1,1-0.2,2.1,0.4,3c0.1,0.1,0,0.3,0,0.4c-0.1,2.2,0.3,4.4,0,6.6c0,0.2,0,0.3,0,0.5c0,0.4-0.2,0.8,0.2,1.1
	c-0.1,0.8,0.3,1.5,0.2,2.4c-0.2,1.6-0.5,3.3-0.5,4.9c0,1.7-0.1,3.4-0.2,5.2c0,0.1,0,0.2,0,0.3c0,0.1,0,0.2,0,0.2
	c-0.5,0.7-0.2,1.5-0.3,2.2c0,0.1,0.1,0.1,0.1,0.2c0-0.1,0.1-0.1,0.1-0.2c-0.1-0.4,0.3-0.8,0.3-1.2c0-0.4,0-0.9,0.1-1.3
	c0.1-0.4,0.2-0.8,0.3-1.2c0.2-1.8,0.1-3.5,0.4-5.3c0.2-1.3,0.4-2.8-0.1-4.2c0-2.3,0-4.7,0-7c0-0.3,0.1-0.6,0-0.9
	c-0.3-1.2-0.3-2.4-0.4-3.6c0-0.5,0.2-1,0-1.4c-0.3-0.6-0.1-1.1-0.2-1.6c-0.1-0.5-0.2-1.1-0.2-1.6c0.1-0.7-0.2-1.2-0.2-1.8
	c0-0.2-0.2-0.5-0.2-0.7c-0.1-0.6-0.3-1.3-0.4-1.9c-0.1-1.1-0.8-2.1-0.7-3.3c0-0.1-0.1-0.1-0.1-0.2c-0.1,0.1-0.2,0.1-0.1,0.2
	C92.6,199.4,92.2,200,92.6,200.6z M89.9,220c0-0.5,0.3-1,0.1-1.4c-0.3-0.6,0-1.1-0.1-1.6c0-0.3-0.1-0.6-0.1-0.9c0,0,0.1-0.1,0.1-0.1
	c0-0.1-0.1-0.2-0.1-0.2c0-0.1,0-0.2,0-0.4c0.1-0.6-0.1-1.2-0.2-1.8c0-0.2-0.1-0.5-0.2-0.7c-0.1-0.6-0.3-1.3-0.3-1.9
	c-0.1-1.1-0.7-2.2-0.6-3.3c0-0.1-0.1-0.1-0.1-0.2c-0.1,0-0.2,0.1-0.2,0.1c0.1,0.6-0.3,1.2,0.1,1.7c0,1.1,0.3,2.1,0.4,3.2
	c0,0.1,0,0.2,0,0.4c0,0.1,0,0.1,0,0.1c0.1,0.8,0.2,1.6,0.3,2.5c0,0.1-0.1,0.1,0,0.1c0,0.1,0.1,0.2,0.1,0.3c0.1,0.6,0.2,1.3,0.1,1.9
	c-0.1,1-0.3,2.1,0.2,3.1c0.1,0.1,0,0.3,0,0.4c-0.2,2.2,0.1,4.4-0.3,6.6c0,0.2,0,0.3,0,0.5c0,0.4-0.2,0.8,0.2,1.1
	c-0.1,0.8,0.2,1.6,0.1,2.4c-0.2,1.6-0.6,3.2-0.7,4.9c-0.1,1.7-0.3,3.4-0.4,5.2c0,0.1,0,0.2,0,0.3c0,0.1,0,0.2-0.1,0.2
	c-0.5,0.7-0.2,1.5-0.4,2.2c0,0.1,0.1,0.1,0.1,0.2c0-0.1,0.1-0.1,0.1-0.2c-0.1-0.4,0.3-0.8,0.4-1.2c0.1-0.4,0-0.9,0.1-1.3
	c0.1-0.4,0.3-0.8,0.3-1.2c0.2-1.8,0.3-3.5,0.6-5.3c0.3-1.3,0.5-2.8,0.1-4.2c0.1-2.3,0.2-4.7,0.3-7c0-0.3,0.1-0.6,0.1-0.9
	C89.8,222.4,89.9,221.2,89.9,220z M94.7,188c0,0,0.1,0.1,0.2,0.1c0,0,0.1-0.1,0.1-0.1c0-0.2,0-0.3,0-0.8c0-0.2-0.1-0.6-0.3-1
	c-0.2-0.5-0.5-0.9-0.7-1.4c-0.1-0.2-0.2-0.4-0.3-0.5c-0.1-0.1-0.3-0.1-0.3,0c-0.1,0.1-0.1,0.3-0.1,0.3c0.5,0.8,0.8,1.7,1.1,2.7
	C94.3,187.6,94.5,187.8,94.7,188z M65.3,155.2c-0.2,0.2-0.3,0.3-0.4,0.4c-0.3,1-0.6,2-0.8,3c-0.1,0.7-0.1,1.4-0.3,2.1
	c-0.1,0.3-0.2,0.6-0.3,0.9c-0.1,0.3,0,0.6-0.2,1c-0.3,0.7-0.3,1.5-0.7,2.2c-0.4,0.7-0.2,1.6-0.9,2.2c-0.1,0.1,0,0.2,0,0.4
	c-0.1,0.9-0.4,1.8-0.7,2.7c-0.2,0.6-0.4,1.2-0.9,1.7c-0.3,0.3-0.6,0.6-0.7,1c-0.4,1.4-1.3,2.6-1.3,4.1c-0.5,0.9-0.6,1.8-0.8,2.8
	c-0.2,1-0.5,1.9-0.5,2.9c0,0.2-0.2,0.4-0.2,0.5c-0.1,0.3-0.2,0.7-0.3,1.1c-0.1,0.2-0.1,0.5-0.2,0.7c-0.3,1.1-0.5,2.2-1.1,3.2
	c0.2,0.9-0.5,1.6-0.6,2.5c-0.1,0.8-0.5,1.6-0.7,2.4c-0.1,0.3-0.2,0.6-0.3,0.9c0,0.1,0,0.2,0,0.3c0.1-0.1,0.2-0.1,0.3-0.2
	c0.1,0,0.2-0.1,0.2-0.2c0.3-1.2,0.9-2.4,1.3-3.6c0.4-1.5,1.1-2.8,1.5-4.3c0.5-1.7,1-3.5,1.3-5.3c0.2-1.3,0.6-2.5,0.9-3.8
	c0.4-1.3,0.8-2.6,1.6-3.7c0.1-0.1,0.1-0.2,0.1-0.3c-0.2-0.8,0.3-1.4,0.7-2c0.1-0.1,0.3-0.3,0.3-0.4c0.1-0.8,0.6-1.4,0.8-2.1
	c0.2-0.8,0.4-1.6,0.7-2.3c0.3-0.7,0.7-1.4,0.6-2.2c0.8-1.6,0.9-3.4,1.3-5.2c0.1-0.4,0.3-0.7,0.3-1.2c0-0.5-0.2-1,0.2-1.5
	C65.7,155.8,65.5,155.5,65.3,155.2z"/>
</svg>
